<svg xmlns="http://www.w3.org/2000/svg" id="blank-graph-1-figure" width="210" height="210" viewBox="0 0 210 210">
  <defs>
    <clipPath id="blank-graph-1-clipPath-0">
      <rect x="5.0" y="5.0" width="200.0" height="200.0"/>
    </clipPath>
    <clipPath id="blank-graph-1-clipPath-1">
      <rect x="5.0" y="5.0" width="200.0" height="200.0"/>
    </clipPath>
  </defs>
  <g id="blank-graph-1-grid-axes">
    <g id="blank-graph-1-grid" stroke="#ccc" stroke-width="1">
      <line x1="5.0" y1="205.0" x2="5.0" y2="5.0"/>
      <line x1="19.3" y1="205.0" x2="19.3" y2="5.0"/>
      <line x1="33.6" y1="205.0" x2="33.6" y2="5.0"/>
      <line x1="47.9" y1="205.0" x2="47.9" y2="5.0"/>
      <line x1="62.1" y1="205.0" x2="62.1" y2="5.0"/>
      <line x1="76.4" y1="205.0" x2="76.4" y2="5.0"/>
      <line x1="90.7" y1="205.0" x2="90.7" y2="5.0"/>
      <line x1="105.0" y1="205.0" x2="105.0" y2="5.0"/>
      <line x1="119.3" y1="205.0" x2="119.3" y2="5.0"/>
      <line x1="133.6" y1="205.0" x2="133.6" y2="5.0"/>
      <line x1="147.9" y1="205.0" x2="147.9" y2="5.0"/>
      <line x1="162.1" y1="205.0" x2="162.1" y2="5.0"/>
      <line x1="176.4" y1="205.0" x2="176.4" y2="5.0"/>
      <line x1="190.7" y1="205.0" x2="190.7" y2="5.0"/>
      <line x1="205.0" y1="205.0" x2="205.0" y2="5.0"/>
      <line x1="5.0" y1="205.0" x2="205.0" y2="205.0"/>
      <line x1="5.0" y1="189.6" x2="205.0" y2="189.6"/>
      <line x1="5.0" y1="174.2" x2="205.0" y2="174.2"/>
      <line x1="5.0" y1="158.8" x2="205.0" y2="158.8"/>
      <line x1="5.0" y1="143.5" x2="205.0" y2="143.5"/>
      <line x1="5.0" y1="128.1" x2="205.0" y2="128.1"/>
      <line x1="5.0" y1="112.7" x2="205.0" y2="112.7"/>
      <line x1="5.0" y1="97.3" x2="205.0" y2="97.3"/>
      <line x1="5.0" y1="81.9" x2="205.0" y2="81.9"/>
      <line x1="5.0" y1="66.5" x2="205.0" y2="66.5"/>
      <line x1="5.0" y1="51.2" x2="205.0" y2="51.2"/>
      <line x1="5.0" y1="35.8" x2="205.0" y2="35.8"/>
      <line x1="5.0" y1="20.4" x2="205.0" y2="20.4"/>
      <line x1="5.0" y1="5.0" x2="205.0" y2="5.0"/>
    </g>
    <g id="blank-graph-1-axes" stroke="black" stroke-width="2">
      <line id="blank-graph-1-line-29" x1="5.0" y1="189.6" x2="205.0" y2="189.6" stroke="black" stroke-width="2"/>
      <g id="blank-graph-1-g-0">
        <line id="blank-graph-1-line-30" x1="62.1" y1="192.6" x2="62.1" y2="186.6"/>
        <line id="blank-graph-1-line-31" x1="90.7" y1="192.6" x2="90.7" y2="186.6"/>
        <line id="blank-graph-1-line-32" x1="119.3" y1="192.6" x2="119.3" y2="186.6"/>
        <line id="blank-graph-1-line-33" x1="147.9" y1="192.6" x2="147.9" y2="186.6"/>
        <line id="blank-graph-1-line-34" x1="176.4" y1="192.6" x2="176.4" y2="186.6"/>
      </g>
      <line id="blank-graph-1-line-35" x1="33.6" y1="205.0" x2="33.6" y2="5.0" stroke="black" stroke-width="2"/>
      <g id="blank-graph-1-g-1">
        <line id="blank-graph-1-line-36" x1="30.6" y1="158.8" x2="36.6" y2="158.8"/>
        <line id="blank-graph-1-line-37" x1="30.6" y1="128.1" x2="36.6" y2="128.1"/>
        <line id="blank-graph-1-line-38" x1="30.6" y1="97.3" x2="36.6" y2="97.3"/>
        <line id="blank-graph-1-line-39" x1="30.6" y1="66.5" x2="36.6" y2="66.5"/>
        <line id="blank-graph-1-line-40" x1="30.6" y1="35.8" x2="36.6" y2="35.8"/>
      </g>
    </g>
    <g id="blank-graph-1-label-0" transform="translate(201.0,185.6) translate(-6.5,-11.5)">
      <g id="blank-graph-1-g-2">
        <svg xmlns:xlink="http://www.w3.org/1999/xlink" style="vertical-align: -0.200px" width="6.536px" height="11.528px" role="img" focusable="false" viewBox="0 -626 361 637" x="0.0" y="0.0">
          <defs>
            <path id="blank-graph-1-MJX-2-TEX-I-1D461" d="M26 385Q19 392 19 395Q19 399 22 411T27 425Q29 430 36 430T87 431H140L159 511Q162 522 166 540T173 566T179 586T187 603T197 615T211 624T229 626Q247 625 254 615T261 596Q261 589 252 549T232 470L222 433Q222 431 272 431H323Q330 424 330 420Q330 398 317 385H210L174 240Q135 80 135 68Q135 26 162 26Q197 26 230 60T283 144Q285 150 288 151T303 153H307Q322 153 322 145Q322 142 319 133Q314 117 301 95T267 48T216 6T155 -11Q125 -11 98 4T59 56Q57 64 57 83V101L92 241Q127 382 128 383Q128 385 77 385H26Z"/>
          </defs>
          <g stroke="currentColor" fill="currentColor" stroke-width="0" transform="scale(1,-1)">
            <g data-mml-node="math">
              <g data-mml-node="mi" data-semantic-type="identifier" data-semantic-role="latinletter" data-semantic-font="italic" data-semantic-annotation="clearspeak:simple" data-semantic-id="0" data-semantic-speech="t">
                <use data-c="1D461" xlink:href="#blank-graph-1-MJX-2-TEX-I-1D461"/>
              </g>
            </g>
          </g>
        </svg>
      </g>
    </g>
    <g id="blank-graph-1-label-1" transform="translate(37.6,9.0) translate(0.0,-0.0)">
      <g id="blank-graph-1-g-3">
        <svg xmlns:xlink="http://www.w3.org/1999/xlink" style="vertical-align: -0.400px" width="13.920px" height="12.760px" role="img" focusable="false" viewBox="0 -683 769 705" x="0.0" y="0.0">
          <defs>
            <path id="blank-graph-1-MJX-3-TEX-I-1D449" d="M52 648Q52 670 65 683H76Q118 680 181 680Q299 680 320 683H330Q336 677 336 674T334 656Q329 641 325 637H304Q282 635 274 635Q245 630 242 620Q242 618 271 369T301 118L374 235Q447 352 520 471T595 594Q599 601 599 609Q599 633 555 637Q537 637 537 648Q537 649 539 661Q542 675 545 679T558 683Q560 683 570 683T604 682T668 681Q737 681 755 683H762Q769 676 769 672Q769 655 760 640Q757 637 743 637Q730 636 719 635T698 630T682 623T670 615T660 608T652 599T645 592L452 282Q272 -9 266 -16Q263 -18 259 -21L241 -22H234Q216 -22 216 -15Q213 -9 177 305Q139 623 138 626Q133 637 76 637H59Q52 642 52 648Z"/>
          </defs>
          <g stroke="currentColor" fill="currentColor" stroke-width="0" transform="scale(1,-1)">
            <g data-mml-node="math">
              <g data-mml-node="mi" data-semantic-type="identifier" data-semantic-role="latinletter" data-semantic-font="italic" data-semantic-annotation="clearspeak:simple" data-semantic-id="0" data-semantic-speech="upper V">
                <use data-c="1D449" xlink:href="#blank-graph-1-MJX-3-TEX-I-1D449"/>
              </g>
            </g>
          </g>
        </svg>
      </g>
    </g>
  </g>
</svg>
