<svg xmlns="http://www.w3.org/2000/svg" id="poly-repeat-prep-figure" width="310" height="310" viewBox="0 0 310 310">
  <defs>
    <clipPath id="poly-repeat-prep-clipPath-0">
      <rect x="5.0" y="5.0" width="300.0" height="300.0"/>
    </clipPath>
    <clipPath id="poly-repeat-prep-clipPath-1">
      <rect x="5.0" y="5.0" width="300.0" height="300.0"/>
    </clipPath>
  </defs>
  <g id="poly-repeat-prep-axes" stroke="black" stroke-width="2">
    <line id="poly-repeat-prep-line-0" x1="5.0" y1="71.7" x2="305.0" y2="71.7" stroke="black" stroke-width="2"/>
    <g id="poly-repeat-prep-g-0">
      <line id="poly-repeat-prep-line-1" x1="28.1" y1="74.7" x2="28.1" y2="68.7"/>
      <line id="poly-repeat-prep-line-2" x1="51.2" y1="74.7" x2="51.2" y2="68.7"/>
      <line id="poly-repeat-prep-line-3" x1="74.2" y1="74.7" x2="74.2" y2="68.7"/>
      <line id="poly-repeat-prep-line-4" x1="97.3" y1="74.7" x2="97.3" y2="68.7"/>
      <line id="poly-repeat-prep-line-5" x1="143.5" y1="74.7" x2="143.5" y2="68.7"/>
      <line id="poly-repeat-prep-line-6" x1="166.5" y1="74.7" x2="166.5" y2="68.7"/>
      <line id="poly-repeat-prep-line-7" x1="189.6" y1="74.7" x2="189.6" y2="68.7"/>
      <line id="poly-repeat-prep-line-8" x1="212.7" y1="74.7" x2="212.7" y2="68.7"/>
      <line id="poly-repeat-prep-line-9" x1="235.8" y1="74.7" x2="235.8" y2="68.7"/>
      <line id="poly-repeat-prep-line-10" x1="258.8" y1="74.7" x2="258.8" y2="68.7"/>
      <line id="poly-repeat-prep-line-11" x1="281.9" y1="74.7" x2="281.9" y2="68.7"/>
      <line id="poly-repeat-prep-line-12" x1="28.1" y1="74.7" x2="28.1" y2="68.7"/>
      <line id="poly-repeat-prep-line-13" x1="51.2" y1="74.7" x2="51.2" y2="68.7"/>
      <line id="poly-repeat-prep-line-14" x1="74.2" y1="74.7" x2="74.2" y2="68.7"/>
      <line id="poly-repeat-prep-line-15" x1="97.3" y1="74.7" x2="97.3" y2="68.7"/>
      <line id="poly-repeat-prep-line-16" x1="143.5" y1="74.7" x2="143.5" y2="68.7"/>
      <line id="poly-repeat-prep-line-17" x1="166.5" y1="74.7" x2="166.5" y2="68.7"/>
      <line id="poly-repeat-prep-line-18" x1="189.6" y1="74.7" x2="189.6" y2="68.7"/>
      <line id="poly-repeat-prep-line-19" x1="212.7" y1="74.7" x2="212.7" y2="68.7"/>
      <line id="poly-repeat-prep-line-20" x1="235.8" y1="74.7" x2="235.8" y2="68.7"/>
      <line id="poly-repeat-prep-line-21" x1="258.8" y1="74.7" x2="258.8" y2="68.7"/>
      <line id="poly-repeat-prep-line-22" x1="281.9" y1="74.7" x2="281.9" y2="68.7"/>
    </g>
    <line id="poly-repeat-prep-line-23" x1="120.4" y1="305.0" x2="120.4" y2="5.0" stroke="black" stroke-width="2"/>
    <g id="poly-repeat-prep-g-1"/>
  </g>
  <g id="poly-repeat-prep-label-0" transform="translate(301.0,67.7) translate(-10.4,-8.2)">
    <g id="poly-repeat-prep-g-2">
      <svg xmlns:xlink="http://www.w3.org/1999/xlink" style="vertical-align: -0.200px" width="10.352px" height="8.200px" role="img" focusable="false" viewBox="0 -442 572 453" x="0.0" y="0.0">
        <defs>
          <path id="poly-repeat-prep-MJX-2-TEX-I-1D465" d="M52 289Q59 331 106 386T222 442Q257 442 286 424T329 379Q371 442 430 442Q467 442 494 420T522 361Q522 332 508 314T481 292T458 288Q439 288 427 299T415 328Q415 374 465 391Q454 404 425 404Q412 404 406 402Q368 386 350 336Q290 115 290 78Q290 50 306 38T341 26Q378 26 414 59T463 140Q466 150 469 151T485 153H489Q504 153 504 145Q504 144 502 134Q486 77 440 33T333 -11Q263 -11 227 52Q186 -10 133 -10H127Q78 -10 57 16T35 71Q35 103 54 123T99 143Q142 143 142 101Q142 81 130 66T107 46T94 41L91 40Q91 39 97 36T113 29T132 26Q168 26 194 71Q203 87 217 139T245 247T261 313Q266 340 266 352Q266 380 251 392T217 404Q177 404 142 372T93 290Q91 281 88 280T72 278H58Q52 284 52 289Z"/>
        </defs>
        <g stroke="currentColor" fill="currentColor" stroke-width="0" transform="scale(1,-1)">
          <g data-mml-node="math">
            <g data-mml-node="mi" data-semantic-type="identifier" data-semantic-role="latinletter" data-semantic-font="italic" data-semantic-annotation="clearspeak:simple" data-semantic-id="0" data-semantic-speech="x">
              <use data-c="1D465" xlink:href="#poly-repeat-prep-MJX-2-TEX-I-1D465"/>
            </g>
          </g>
        </g>
      </svg>
    </g>
  </g>
  <g id="poly-repeat-prep-label-1" transform="translate(124.4,9.0) translate(0.0,-0.0)">
    <g id="poly-repeat-prep-g-3">
      <svg xmlns:xlink="http://www.w3.org/1999/xlink" style="vertical-align: -3.712px" width="8.872px" height="11.712px" role="img" focusable="false" viewBox="0 -442 490 647" x="0.0" y="0.0">
        <defs>
          <path id="poly-repeat-prep-MJX-3-TEX-I-1D466" d="M21 287Q21 301 36 335T84 406T158 442Q199 442 224 419T250 355Q248 336 247 334Q247 331 231 288T198 191T182 105Q182 62 196 45T238 27Q261 27 281 38T312 61T339 94Q339 95 344 114T358 173T377 247Q415 397 419 404Q432 431 462 431Q475 431 483 424T494 412T496 403Q496 390 447 193T391 -23Q363 -106 294 -155T156 -205Q111 -205 77 -183T43 -117Q43 -95 50 -80T69 -58T89 -48T106 -45Q150 -45 150 -87Q150 -107 138 -122T115 -142T102 -147L99 -148Q101 -153 118 -160T152 -167H160Q177 -167 186 -165Q219 -156 247 -127T290 -65T313 -9T321 21L315 17Q309 13 296 6T270 -6Q250 -11 231 -11Q185 -11 150 11T104 82Q103 89 103 113Q103 170 138 262T173 379Q173 380 173 381Q173 390 173 393T169 400T158 404H154Q131 404 112 385T82 344T65 302T57 280Q55 278 41 278H27Q21 284 21 287Z"/>
        </defs>
        <g stroke="currentColor" fill="currentColor" stroke-width="0" transform="scale(1,-1)">
          <g data-mml-node="math">
            <g data-mml-node="mi" data-semantic-type="identifier" data-semantic-role="latinletter" data-semantic-font="italic" data-semantic-annotation="clearspeak:simple" data-semantic-id="0" data-semantic-speech="y">
              <use data-c="1D466" xlink:href="#poly-repeat-prep-MJX-3-TEX-I-1D466"/>
            </g>
          </g>
        </g>
      </svg>
    </g>
  </g>
  <g id="poly-repeat-prep-label-2" transform="translate(28.1,82.7) translate(-7.5,-0.0)">
    <g id="poly-repeat-prep-g-4">
      <svg xmlns:xlink="http://www.w3.org/1999/xlink" style="vertical-align: 0.000px" width="15.080px" height="12.256px" role="img" focusable="false" viewBox="0 -677 833 677" x="0.0" y="0.0">
        <defs>
          <path id="poly-repeat-prep-MJX-4-TEX-N-2D" d="M11 179V252H277V179H11Z"/>
          <path id="poly-repeat-prep-MJX-4-TEX-N-34" d="M462 0Q444 3 333 3Q217 3 199 0H190V46H221Q241 46 248 46T265 48T279 53T286 61Q287 63 287 115V165H28V211L179 442Q332 674 334 675Q336 677 355 677H373L379 671V211H471V165H379V114Q379 73 379 66T385 54Q393 47 442 46H471V0H462ZM293 211V545L74 212L183 211H293Z"/>
        </defs>
        <g stroke="currentColor" fill="currentColor" stroke-width="0" transform="scale(1,-1)">
          <g data-mml-node="math">
            <g data-mml-node="mtext" data-semantic-type="text" data-semantic-role="unknown" data-semantic-font="normal" data-semantic-annotation="clearspeak:unit" data-semantic-id="0" data-semantic-speech="hyphen 4">
              <use data-c="2D" xlink:href="#poly-repeat-prep-MJX-4-TEX-N-2D"/>
              <use data-c="34" xlink:href="#poly-repeat-prep-MJX-4-TEX-N-34" transform="translate(333,0)"/>
            </g>
          </g>
        </g>
      </svg>
    </g>
  </g>
  <g id="poly-repeat-prep-label-3" transform="translate(51.2,82.7) translate(-7.5,-0.0)">
    <g id="poly-repeat-prep-g-5">
      <svg xmlns:xlink="http://www.w3.org/1999/xlink" style="vertical-align: -0.400px" width="15.080px" height="12.432px" role="img" focusable="false" viewBox="0 -665 833 687" x="0.0" y="0.0">
        <defs>
          <path id="poly-repeat-prep-MJX-5-TEX-N-2D" d="M11 179V252H277V179H11Z"/>
          <path id="poly-repeat-prep-MJX-5-TEX-N-33" d="M127 463Q100 463 85 480T69 524Q69 579 117 622T233 665Q268 665 277 664Q351 652 390 611T430 522Q430 470 396 421T302 350L299 348Q299 347 308 345T337 336T375 315Q457 262 457 175Q457 96 395 37T238 -22Q158 -22 100 21T42 130Q42 158 60 175T105 193Q133 193 151 175T169 130Q169 119 166 110T159 94T148 82T136 74T126 70T118 67L114 66Q165 21 238 21Q293 21 321 74Q338 107 338 175V195Q338 290 274 322Q259 328 213 329L171 330L168 332Q166 335 166 348Q166 366 174 366Q202 366 232 371Q266 376 294 413T322 525V533Q322 590 287 612Q265 626 240 626Q208 626 181 615T143 592T132 580H135Q138 579 143 578T153 573T165 566T175 555T183 540T186 520Q186 498 172 481T127 463Z"/>
        </defs>
        <g stroke="currentColor" fill="currentColor" stroke-width="0" transform="scale(1,-1)">
          <g data-mml-node="math">
            <g data-mml-node="mtext" data-semantic-type="text" data-semantic-role="unknown" data-semantic-font="normal" data-semantic-annotation="clearspeak:unit" data-semantic-id="0" data-semantic-speech="hyphen 3">
              <use data-c="2D" xlink:href="#poly-repeat-prep-MJX-5-TEX-N-2D"/>
              <use data-c="33" xlink:href="#poly-repeat-prep-MJX-5-TEX-N-33" transform="translate(333,0)"/>
            </g>
          </g>
        </g>
      </svg>
    </g>
  </g>
  <g id="poly-repeat-prep-label-4" transform="translate(74.2,82.7) translate(-7.5,-0.0)">
    <g id="poly-repeat-prep-g-6">
      <svg xmlns:xlink="http://www.w3.org/1999/xlink" style="vertical-align: 0.000px" width="15.080px" height="12.056px" role="img" focusable="false" viewBox="0 -666 833 666" x="0.0" y="0.0">
        <defs>
          <path id="poly-repeat-prep-MJX-6-TEX-N-2D" d="M11 179V252H277V179H11Z"/>
          <path id="poly-repeat-prep-MJX-6-TEX-N-32" d="M109 429Q82 429 66 447T50 491Q50 562 103 614T235 666Q326 666 387 610T449 465Q449 422 429 383T381 315T301 241Q265 210 201 149L142 93L218 92Q375 92 385 97Q392 99 409 186V189H449V186Q448 183 436 95T421 3V0H50V19V31Q50 38 56 46T86 81Q115 113 136 137Q145 147 170 174T204 211T233 244T261 278T284 308T305 340T320 369T333 401T340 431T343 464Q343 527 309 573T212 619Q179 619 154 602T119 569T109 550Q109 549 114 549Q132 549 151 535T170 489Q170 464 154 447T109 429Z"/>
        </defs>
        <g stroke="currentColor" fill="currentColor" stroke-width="0" transform="scale(1,-1)">
          <g data-mml-node="math">
            <g data-mml-node="mtext" data-semantic-type="text" data-semantic-role="unknown" data-semantic-font="normal" data-semantic-annotation="clearspeak:unit" data-semantic-id="0" data-semantic-speech="hyphen 2">
              <use data-c="2D" xlink:href="#poly-repeat-prep-MJX-6-TEX-N-2D"/>
              <use data-c="32" xlink:href="#poly-repeat-prep-MJX-6-TEX-N-32" transform="translate(333,0)"/>
            </g>
          </g>
        </g>
      </svg>
    </g>
  </g>
  <g id="poly-repeat-prep-label-5" transform="translate(97.3,82.7) translate(-7.5,-0.0)">
    <g id="poly-repeat-prep-g-7">
      <svg xmlns:xlink="http://www.w3.org/1999/xlink" style="vertical-align: 0.000px" width="15.080px" height="12.056px" role="img" focusable="false" viewBox="0 -666 833 666" x="0.0" y="0.0">
        <defs>
          <path id="poly-repeat-prep-MJX-7-TEX-N-2D" d="M11 179V252H277V179H11Z"/>
          <path id="poly-repeat-prep-MJX-7-TEX-N-31" d="M213 578L200 573Q186 568 160 563T102 556H83V602H102Q149 604 189 617T245 641T273 663Q275 666 285 666Q294 666 302 660V361L303 61Q310 54 315 52T339 48T401 46H427V0H416Q395 3 257 3Q121 3 100 0H88V46H114Q136 46 152 46T177 47T193 50T201 52T207 57T213 61V578Z"/>
        </defs>
        <g stroke="currentColor" fill="currentColor" stroke-width="0" transform="scale(1,-1)">
          <g data-mml-node="math">
            <g data-mml-node="mtext" data-semantic-type="text" data-semantic-role="unknown" data-semantic-font="normal" data-semantic-annotation="clearspeak:unit" data-semantic-id="0" data-semantic-speech="hyphen 1">
              <use data-c="2D" xlink:href="#poly-repeat-prep-MJX-7-TEX-N-2D"/>
              <use data-c="31" xlink:href="#poly-repeat-prep-MJX-7-TEX-N-31" transform="translate(333,0)"/>
            </g>
          </g>
        </g>
      </svg>
    </g>
  </g>
  <g id="poly-repeat-prep-label-6" transform="translate(143.5,82.7) translate(-4.5,-0.0)">
    <g id="poly-repeat-prep-g-8">
      <svg xmlns:xlink="http://www.w3.org/1999/xlink" style="vertical-align: 0.000px" width="9.048px" height="12.056px" role="img" focusable="false" viewBox="0 -666 500 666" x="0.0" y="0.0">
        <defs>
          <path id="poly-repeat-prep-MJX-8-TEX-N-31" d="M213 578L200 573Q186 568 160 563T102 556H83V602H102Q149 604 189 617T245 641T273 663Q275 666 285 666Q294 666 302 660V361L303 61Q310 54 315 52T339 48T401 46H427V0H416Q395 3 257 3Q121 3 100 0H88V46H114Q136 46 152 46T177 47T193 50T201 52T207 57T213 61V578Z"/>
        </defs>
        <g stroke="currentColor" fill="currentColor" stroke-width="0" transform="scale(1,-1)">
          <g data-mml-node="math">
            <g data-mml-node="mtext" data-semantic-type="text" data-semantic-role="integer" data-semantic-font="normal" data-semantic-annotation="clearspeak:unit" data-semantic-id="0" data-semantic-speech="1">
              <use data-c="31" xlink:href="#poly-repeat-prep-MJX-8-TEX-N-31"/>
            </g>
          </g>
        </g>
      </svg>
    </g>
  </g>
  <g id="poly-repeat-prep-label-7" transform="translate(166.5,82.7) translate(-4.5,-0.0)">
    <g id="poly-repeat-prep-g-9">
      <svg xmlns:xlink="http://www.w3.org/1999/xlink" style="vertical-align: 0.000px" width="9.048px" height="12.056px" role="img" focusable="false" viewBox="0 -666 500 666" x="0.0" y="0.0">
        <defs>
          <path id="poly-repeat-prep-MJX-9-TEX-N-32" d="M109 429Q82 429 66 447T50 491Q50 562 103 614T235 666Q326 666 387 610T449 465Q449 422 429 383T381 315T301 241Q265 210 201 149L142 93L218 92Q375 92 385 97Q392 99 409 186V189H449V186Q448 183 436 95T421 3V0H50V19V31Q50 38 56 46T86 81Q115 113 136 137Q145 147 170 174T204 211T233 244T261 278T284 308T305 340T320 369T333 401T340 431T343 464Q343 527 309 573T212 619Q179 619 154 602T119 569T109 550Q109 549 114 549Q132 549 151 535T170 489Q170 464 154 447T109 429Z"/>
        </defs>
        <g stroke="currentColor" fill="currentColor" stroke-width="0" transform="scale(1,-1)">
          <g data-mml-node="math">
            <g data-mml-node="mtext" data-semantic-type="text" data-semantic-role="integer" data-semantic-font="normal" data-semantic-annotation="clearspeak:unit" data-semantic-id="0" data-semantic-speech="2">
              <use data-c="32" xlink:href="#poly-repeat-prep-MJX-9-TEX-N-32"/>
            </g>
          </g>
        </g>
      </svg>
    </g>
  </g>
  <g id="poly-repeat-prep-label-8" transform="translate(189.6,82.7) translate(-4.5,-0.0)">
    <g id="poly-repeat-prep-g-10">
      <svg xmlns:xlink="http://www.w3.org/1999/xlink" style="vertical-align: -0.400px" width="9.048px" height="12.432px" role="img" focusable="false" viewBox="0 -665 500 687" x="0.0" y="0.0">
        <defs>
          <path id="poly-repeat-prep-MJX-10-TEX-N-33" d="M127 463Q100 463 85 480T69 524Q69 579 117 622T233 665Q268 665 277 664Q351 652 390 611T430 522Q430 470 396 421T302 350L299 348Q299 347 308 345T337 336T375 315Q457 262 457 175Q457 96 395 37T238 -22Q158 -22 100 21T42 130Q42 158 60 175T105 193Q133 193 151 175T169 130Q169 119 166 110T159 94T148 82T136 74T126 70T118 67L114 66Q165 21 238 21Q293 21 321 74Q338 107 338 175V195Q338 290 274 322Q259 328 213 329L171 330L168 332Q166 335 166 348Q166 366 174 366Q202 366 232 371Q266 376 294 413T322 525V533Q322 590 287 612Q265 626 240 626Q208 626 181 615T143 592T132 580H135Q138 579 143 578T153 573T165 566T175 555T183 540T186 520Q186 498 172 481T127 463Z"/>
        </defs>
        <g stroke="currentColor" fill="currentColor" stroke-width="0" transform="scale(1,-1)">
          <g data-mml-node="math">
            <g data-mml-node="mtext" data-semantic-type="text" data-semantic-role="integer" data-semantic-font="normal" data-semantic-annotation="clearspeak:unit" data-semantic-id="0" data-semantic-speech="3">
              <use data-c="33" xlink:href="#poly-repeat-prep-MJX-10-TEX-N-33"/>
            </g>
          </g>
        </g>
      </svg>
    </g>
  </g>
  <g id="poly-repeat-prep-label-9" transform="translate(212.7,82.7) translate(-4.5,-0.0)">
    <g id="poly-repeat-prep-g-11">
      <svg xmlns:xlink="http://www.w3.org/1999/xlink" style="vertical-align: 0.000px" width="9.048px" height="12.256px" role="img" focusable="false" viewBox="0 -677 500 677" x="0.0" y="0.0">
        <defs>
          <path id="poly-repeat-prep-MJX-11-TEX-N-34" d="M462 0Q444 3 333 3Q217 3 199 0H190V46H221Q241 46 248 46T265 48T279 53T286 61Q287 63 287 115V165H28V211L179 442Q332 674 334 675Q336 677 355 677H373L379 671V211H471V165H379V114Q379 73 379 66T385 54Q393 47 442 46H471V0H462ZM293 211V545L74 212L183 211H293Z"/>
        </defs>
        <g stroke="currentColor" fill="currentColor" stroke-width="0" transform="scale(1,-1)">
          <g data-mml-node="math">
            <g data-mml-node="mtext" data-semantic-type="text" data-semantic-role="integer" data-semantic-font="normal" data-semantic-annotation="clearspeak:unit" data-semantic-id="0" data-semantic-speech="4">
              <use data-c="34" xlink:href="#poly-repeat-prep-MJX-11-TEX-N-34"/>
            </g>
          </g>
        </g>
      </svg>
    </g>
  </g>
  <g id="poly-repeat-prep-label-10" transform="translate(235.8,82.7) translate(-4.5,-0.0)">
    <g id="poly-repeat-prep-g-12">
      <svg xmlns:xlink="http://www.w3.org/1999/xlink" style="vertical-align: -0.400px" width="9.048px" height="12.456px" role="img" focusable="false" viewBox="0 -666 500 688" x="0.0" y="0.0">
        <defs>
          <path id="poly-repeat-prep-MJX-12-TEX-N-35" d="M164 157Q164 133 148 117T109 101H102Q148 22 224 22Q294 22 326 82Q345 115 345 210Q345 313 318 349Q292 382 260 382H254Q176 382 136 314Q132 307 129 306T114 304Q97 304 95 310Q93 314 93 485V614Q93 664 98 664Q100 666 102 666Q103 666 123 658T178 642T253 634Q324 634 389 662Q397 666 402 666Q410 666 410 648V635Q328 538 205 538Q174 538 149 544L139 546V374Q158 388 169 396T205 412T256 420Q337 420 393 355T449 201Q449 109 385 44T229 -22Q148 -22 99 32T50 154Q50 178 61 192T84 210T107 214Q132 214 148 197T164 157Z"/>
        </defs>
        <g stroke="currentColor" fill="currentColor" stroke-width="0" transform="scale(1,-1)">
          <g data-mml-node="math">
            <g data-mml-node="mtext" data-semantic-type="text" data-semantic-role="integer" data-semantic-font="normal" data-semantic-annotation="clearspeak:unit" data-semantic-id="0" data-semantic-speech="5">
              <use data-c="35" xlink:href="#poly-repeat-prep-MJX-12-TEX-N-35"/>
            </g>
          </g>
        </g>
      </svg>
    </g>
  </g>
  <g id="poly-repeat-prep-label-11" transform="translate(258.8,82.7) translate(-4.5,-0.0)">
    <g id="poly-repeat-prep-g-13">
      <svg xmlns:xlink="http://www.w3.org/1999/xlink" style="vertical-align: -0.400px" width="9.048px" height="12.456px" role="img" focusable="false" viewBox="0 -666 500 688" x="0.0" y="0.0">
        <defs>
          <path id="poly-repeat-prep-MJX-13-TEX-N-36" d="M42 313Q42 476 123 571T303 666Q372 666 402 630T432 550Q432 525 418 510T379 495Q356 495 341 509T326 548Q326 592 373 601Q351 623 311 626Q240 626 194 566Q147 500 147 364L148 360Q153 366 156 373Q197 433 263 433H267Q313 433 348 414Q372 400 396 374T435 317Q456 268 456 210V192Q456 169 451 149Q440 90 387 34T253 -22Q225 -22 199 -14T143 16T92 75T56 172T42 313ZM257 397Q227 397 205 380T171 335T154 278T148 216Q148 133 160 97T198 39Q222 21 251 21Q302 21 329 59Q342 77 347 104T352 209Q352 289 347 316T329 361Q302 397 257 397Z"/>
        </defs>
        <g stroke="currentColor" fill="currentColor" stroke-width="0" transform="scale(1,-1)">
          <g data-mml-node="math">
            <g data-mml-node="mtext" data-semantic-type="text" data-semantic-role="integer" data-semantic-font="normal" data-semantic-annotation="clearspeak:unit" data-semantic-id="0" data-semantic-speech="6">
              <use data-c="36" xlink:href="#poly-repeat-prep-MJX-13-TEX-N-36"/>
            </g>
          </g>
        </g>
      </svg>
    </g>
  </g>
  <g id="poly-repeat-prep-label-12" transform="translate(281.9,82.7) translate(-4.5,-0.0)">
    <g id="poly-repeat-prep-g-14">
      <svg xmlns:xlink="http://www.w3.org/1999/xlink" style="vertical-align: -0.400px" width="9.048px" height="12.632px" role="img" focusable="false" viewBox="0 -676 500 698" x="0.0" y="0.0">
        <defs>
          <path id="poly-repeat-prep-MJX-14-TEX-N-37" d="M55 458Q56 460 72 567L88 674Q88 676 108 676H128V672Q128 662 143 655T195 646T364 644H485V605L417 512Q408 500 387 472T360 435T339 403T319 367T305 330T292 284T284 230T278 162T275 80Q275 66 275 52T274 28V19Q270 2 255 -10T221 -22Q210 -22 200 -19T179 0T168 40Q168 198 265 368Q285 400 349 489L395 552H302Q128 552 119 546Q113 543 108 522T98 479L95 458V455H55V458Z"/>
        </defs>
        <g stroke="currentColor" fill="currentColor" stroke-width="0" transform="scale(1,-1)">
          <g data-mml-node="math">
            <g data-mml-node="mtext" data-semantic-type="text" data-semantic-role="integer" data-semantic-font="normal" data-semantic-annotation="clearspeak:unit" data-semantic-id="0" data-semantic-speech="7">
              <use data-c="37" xlink:href="#poly-repeat-prep-MJX-14-TEX-N-37"/>
            </g>
          </g>
        </g>
      </svg>
    </g>
  </g>
  <path id="poly-repeat-prep-graph-0" stroke="blue" stroke-width="2" fill="none" d="M 38.9 -294.9 L 41.0 -213.3 L 44.0 -112.5 L 47.0 -26.3 L 50.0 46.8 L 53.0 107.9 L 56.0 158.3 L 59.0 198.9 L 62.0 230.9 L 65.0 255.1 L 68.0 272.5 L 71.0 283.9 L 74.0 290.1 L 77.0 291.9 L 80.0 289.8 L 83.0 284.5 L 86.0 276.6 L 89.0 266.6 L 92.0 255.0 L 95.0 242.1 L 98.0 228.5 L 101.0 214.3 L 104.0 199.9 L 107.0 185.6 L 110.0 171.6 L 113.0 158.1 L 116.0 145.3 L 119.0 133.2 L 122.0 122.0 L 125.0 111.8 L 128.0 102.6 L 131.0 94.5 L 134.0 87.4 L 137.0 81.3 L 140.0 76.3 L 143.0 72.2 L 146.0 69.0 L 149.0 66.7 L 152.0 65.2 L 155.0 64.3 L 158.0 64.0 L 161.0 64.2 L 164.0 64.7 L 167.0 65.6 L 170.0 66.6 L 173.0 67.7 L 176.0 68.8 L 179.0 69.8 L 182.0 70.7 L 185.0 71.3 L 188.0 71.6 L 191.0 71.6 L 194.0 71.3 L 197.0 70.6 L 200.0 69.6 L 203.0 68.3 L 206.0 66.7 L 209.0 65.0 L 212.0 63.3 L 215.0 61.7 L 218.0 60.3 L 221.0 59.5 L 224.0 59.3 L 227.0 60.2 L 230.0 62.4 L 233.0 66.3 L 236.0 72.2 L 239.0 80.7 L 242.0 92.1 L 245.0 107.1 L 248.0 126.3 L 251.0 150.2 L 254.0 179.5 L 257.0 215.1 L 260.0 257.7 L 263.0 308.1 L 266.0 367.3 L 269.0 436.3 L 272.0 516.1" clip-path="url(#poly-repeat-prep-clipPath-1)"/>
</svg>
