<svg xmlns="http://www.w3.org/2000/svg" id="quadratic-points-1-figure" width="310" height="310" viewBox="0 0 310 310">
  <defs>
    <clipPath id="quadratic-points-1-clipPath-0">
      <rect x="5.0" y="5.0" width="300.0" height="300.0"/>
    </clipPath>
    <clipPath id="quadratic-points-1-clipPath-1">
      <rect x="5.0" y="5.0" width="300.0" height="300.0"/>
    </clipPath>
  </defs>
  <g id="quadratic-points-1-axes" stroke="black" stroke-width="2">
    <line id="quadratic-points-1-line-0" x1="5.0" y1="281.9" x2="305.0" y2="281.9" stroke="black" stroke-width="2"/>
    <g id="quadratic-points-1-g-0">
      <line id="quadratic-points-1-line-1" x1="65.0" y1="284.9" x2="65.0" y2="278.9"/>
      <line id="quadratic-points-1-line-2" x1="95.0" y1="284.9" x2="95.0" y2="278.9"/>
      <line id="quadratic-points-1-line-3" x1="125.0" y1="284.9" x2="125.0" y2="278.9"/>
      <line id="quadratic-points-1-line-4" x1="155.0" y1="284.9" x2="155.0" y2="278.9"/>
      <line id="quadratic-points-1-line-5" x1="185.0" y1="284.9" x2="185.0" y2="278.9"/>
      <line id="quadratic-points-1-line-6" x1="215.0" y1="284.9" x2="215.0" y2="278.9"/>
      <line id="quadratic-points-1-line-7" x1="245.0" y1="284.9" x2="245.0" y2="278.9"/>
      <line id="quadratic-points-1-line-8" x1="275.0" y1="284.9" x2="275.0" y2="278.9"/>
      <line id="quadratic-points-1-line-9" x1="95.0" y1="284.9" x2="95.0" y2="278.9"/>
      <line id="quadratic-points-1-line-10" x1="155.0" y1="284.9" x2="155.0" y2="278.9"/>
      <line id="quadratic-points-1-line-11" x1="215.0" y1="284.9" x2="215.0" y2="278.9"/>
      <line id="quadratic-points-1-line-12" x1="275.0" y1="284.9" x2="275.0" y2="278.9"/>
    </g>
    <line id="quadratic-points-1-line-13" x1="35.0" y1="305.0" x2="35.0" y2="5.0" stroke="black" stroke-width="2"/>
    <g id="quadratic-points-1-g-1">
      <line id="quadratic-points-1-line-14" x1="32.0" y1="258.8" x2="38.0" y2="258.8"/>
      <line id="quadratic-points-1-line-15" x1="32.0" y1="235.8" x2="38.0" y2="235.8"/>
      <line id="quadratic-points-1-line-16" x1="32.0" y1="212.7" x2="38.0" y2="212.7"/>
      <line id="quadratic-points-1-line-17" x1="32.0" y1="189.6" x2="38.0" y2="189.6"/>
      <line id="quadratic-points-1-line-18" x1="32.0" y1="166.5" x2="38.0" y2="166.5"/>
      <line id="quadratic-points-1-line-19" x1="32.0" y1="143.5" x2="38.0" y2="143.5"/>
      <line id="quadratic-points-1-line-20" x1="32.0" y1="120.4" x2="38.0" y2="120.4"/>
      <line id="quadratic-points-1-line-21" x1="32.0" y1="97.3" x2="38.0" y2="97.3"/>
      <line id="quadratic-points-1-line-22" x1="32.0" y1="74.2" x2="38.0" y2="74.2"/>
      <line id="quadratic-points-1-line-23" x1="32.0" y1="51.2" x2="38.0" y2="51.2"/>
      <line id="quadratic-points-1-line-24" x1="32.0" y1="28.1" x2="38.0" y2="28.1"/>
      <line id="quadratic-points-1-line-25" x1="32.0" y1="166.5" x2="38.0" y2="166.5"/>
      <line id="quadratic-points-1-line-26" x1="32.0" y1="51.2" x2="38.0" y2="51.2"/>
    </g>
  </g>
  <g id="quadratic-points-1-label-0" transform="translate(301.0,277.9) translate(-10.4,-8.2)">
    <g id="quadratic-points-1-g-5">
      <svg xmlns:xlink="http://www.w3.org/1999/xlink" style="vertical-align: -0.200px" width="10.352px" height="8.200px" role="img" focusable="false" viewBox="0 -442 572 453" x="0.0" y="0.0">
        <defs>
          <path id="quadratic-points-1-MJX-2-TEX-I-1D465" d="M52 289Q59 331 106 386T222 442Q257 442 286 424T329 379Q371 442 430 442Q467 442 494 420T522 361Q522 332 508 314T481 292T458 288Q439 288 427 299T415 328Q415 374 465 391Q454 404 425 404Q412 404 406 402Q368 386 350 336Q290 115 290 78Q290 50 306 38T341 26Q378 26 414 59T463 140Q466 150 469 151T485 153H489Q504 153 504 145Q504 144 502 134Q486 77 440 33T333 -11Q263 -11 227 52Q186 -10 133 -10H127Q78 -10 57 16T35 71Q35 103 54 123T99 143Q142 143 142 101Q142 81 130 66T107 46T94 41L91 40Q91 39 97 36T113 29T132 26Q168 26 194 71Q203 87 217 139T245 247T261 313Q266 340 266 352Q266 380 251 392T217 404Q177 404 142 372T93 290Q91 281 88 280T72 278H58Q52 284 52 289Z"/>
        </defs>
        <g stroke="currentColor" fill="currentColor" stroke-width="0" transform="scale(1,-1)">
          <g data-mml-node="math">
            <g data-mml-node="mi" data-semantic-type="identifier" data-semantic-role="latinletter" data-semantic-font="italic" data-semantic-annotation="clearspeak:simple" data-semantic-id="0" data-semantic-speech="x">
              <use data-c="1D465" xlink:href="#quadratic-points-1-MJX-2-TEX-I-1D465"/>
            </g>
          </g>
        </g>
      </svg>
    </g>
  </g>
  <g id="quadratic-points-1-label-1" transform="translate(39.0,9.0) translate(0.0,-0.0)">
    <g id="quadratic-points-1-g-6">
      <svg xmlns:xlink="http://www.w3.org/1999/xlink" style="vertical-align: -3.712px" width="8.872px" height="11.712px" role="img" focusable="false" viewBox="0 -442 490 647" x="0.0" y="0.0">
        <defs>
          <path id="quadratic-points-1-MJX-3-TEX-I-1D466" d="M21 287Q21 301 36 335T84 406T158 442Q199 442 224 419T250 355Q248 336 247 334Q247 331 231 288T198 191T182 105Q182 62 196 45T238 27Q261 27 281 38T312 61T339 94Q339 95 344 114T358 173T377 247Q415 397 419 404Q432 431 462 431Q475 431 483 424T494 412T496 403Q496 390 447 193T391 -23Q363 -106 294 -155T156 -205Q111 -205 77 -183T43 -117Q43 -95 50 -80T69 -58T89 -48T106 -45Q150 -45 150 -87Q150 -107 138 -122T115 -142T102 -147L99 -148Q101 -153 118 -160T152 -167H160Q177 -167 186 -165Q219 -156 247 -127T290 -65T313 -9T321 21L315 17Q309 13 296 6T270 -6Q250 -11 231 -11Q185 -11 150 11T104 82Q103 89 103 113Q103 170 138 262T173 379Q173 380 173 381Q173 390 173 393T169 400T158 404H154Q131 404 112 385T82 344T65 302T57 280Q55 278 41 278H27Q21 284 21 287Z"/>
        </defs>
        <g stroke="currentColor" fill="currentColor" stroke-width="0" transform="scale(1,-1)">
          <g data-mml-node="math">
            <g data-mml-node="mi" data-semantic-type="identifier" data-semantic-role="latinletter" data-semantic-font="italic" data-semantic-annotation="clearspeak:simple" data-semantic-id="0" data-semantic-speech="y">
              <use data-c="1D466" xlink:href="#quadratic-points-1-MJX-3-TEX-I-1D466"/>
            </g>
          </g>
        </g>
      </svg>
    </g>
  </g>
  <g id="quadratic-points-1-label-2" transform="translate(95.0,292.9) translate(-4.5,-0.0)">
    <g id="quadratic-points-1-g-7">
      <svg xmlns:xlink="http://www.w3.org/1999/xlink" style="vertical-align: 0.000px" width="9.048px" height="12.056px" role="img" focusable="false" viewBox="0 -666 500 666" x="0.0" y="0.0">
        <defs>
          <path id="quadratic-points-1-MJX-4-TEX-N-32" d="M109 429Q82 429 66 447T50 491Q50 562 103 614T235 666Q326 666 387 610T449 465Q449 422 429 383T381 315T301 241Q265 210 201 149L142 93L218 92Q375 92 385 97Q392 99 409 186V189H449V186Q448 183 436 95T421 3V0H50V19V31Q50 38 56 46T86 81Q115 113 136 137Q145 147 170 174T204 211T233 244T261 278T284 308T305 340T320 369T333 401T340 431T343 464Q343 527 309 573T212 619Q179 619 154 602T119 569T109 550Q109 549 114 549Q132 549 151 535T170 489Q170 464 154 447T109 429Z"/>
        </defs>
        <g stroke="currentColor" fill="currentColor" stroke-width="0" transform="scale(1,-1)">
          <g data-mml-node="math">
            <g data-mml-node="mtext" data-semantic-type="text" data-semantic-role="integer" data-semantic-font="normal" data-semantic-annotation="clearspeak:unit" data-semantic-id="0" data-semantic-speech="2">
              <use data-c="32" xlink:href="#quadratic-points-1-MJX-4-TEX-N-32"/>
            </g>
          </g>
        </g>
      </svg>
    </g>
  </g>
  <g id="quadratic-points-1-label-3" transform="translate(155.0,292.9) translate(-4.5,-0.0)">
    <g id="quadratic-points-1-g-8">
      <svg xmlns:xlink="http://www.w3.org/1999/xlink" style="vertical-align: 0.000px" width="9.048px" height="12.256px" role="img" focusable="false" viewBox="0 -677 500 677" x="0.0" y="0.0">
        <defs>
          <path id="quadratic-points-1-MJX-5-TEX-N-34" d="M462 0Q444 3 333 3Q217 3 199 0H190V46H221Q241 46 248 46T265 48T279 53T286 61Q287 63 287 115V165H28V211L179 442Q332 674 334 675Q336 677 355 677H373L379 671V211H471V165H379V114Q379 73 379 66T385 54Q393 47 442 46H471V0H462ZM293 211V545L74 212L183 211H293Z"/>
        </defs>
        <g stroke="currentColor" fill="currentColor" stroke-width="0" transform="scale(1,-1)">
          <g data-mml-node="math">
            <g data-mml-node="mtext" data-semantic-type="text" data-semantic-role="integer" data-semantic-font="normal" data-semantic-annotation="clearspeak:unit" data-semantic-id="0" data-semantic-speech="4">
              <use data-c="34" xlink:href="#quadratic-points-1-MJX-5-TEX-N-34"/>
            </g>
          </g>
        </g>
      </svg>
    </g>
  </g>
  <g id="quadratic-points-1-label-4" transform="translate(215.0,292.9) translate(-4.5,-0.0)">
    <g id="quadratic-points-1-g-9">
      <svg xmlns:xlink="http://www.w3.org/1999/xlink" style="vertical-align: -0.400px" width="9.048px" height="12.456px" role="img" focusable="false" viewBox="0 -666 500 688" x="0.0" y="0.0">
        <defs>
          <path id="quadratic-points-1-MJX-6-TEX-N-36" d="M42 313Q42 476 123 571T303 666Q372 666 402 630T432 550Q432 525 418 510T379 495Q356 495 341 509T326 548Q326 592 373 601Q351 623 311 626Q240 626 194 566Q147 500 147 364L148 360Q153 366 156 373Q197 433 263 433H267Q313 433 348 414Q372 400 396 374T435 317Q456 268 456 210V192Q456 169 451 149Q440 90 387 34T253 -22Q225 -22 199 -14T143 16T92 75T56 172T42 313ZM257 397Q227 397 205 380T171 335T154 278T148 216Q148 133 160 97T198 39Q222 21 251 21Q302 21 329 59Q342 77 347 104T352 209Q352 289 347 316T329 361Q302 397 257 397Z"/>
        </defs>
        <g stroke="currentColor" fill="currentColor" stroke-width="0" transform="scale(1,-1)">
          <g data-mml-node="math">
            <g data-mml-node="mtext" data-semantic-type="text" data-semantic-role="integer" data-semantic-font="normal" data-semantic-annotation="clearspeak:unit" data-semantic-id="0" data-semantic-speech="6">
              <use data-c="36" xlink:href="#quadratic-points-1-MJX-6-TEX-N-36"/>
            </g>
          </g>
        </g>
      </svg>
    </g>
  </g>
  <g id="quadratic-points-1-label-5" transform="translate(275.0,292.9) translate(-4.5,-0.0)">
    <g id="quadratic-points-1-g-10">
      <svg xmlns:xlink="http://www.w3.org/1999/xlink" style="vertical-align: -0.400px" width="9.048px" height="12.456px" role="img" focusable="false" viewBox="0 -666 500 688" x="0.0" y="0.0">
        <defs>
          <path id="quadratic-points-1-MJX-7-TEX-N-38" d="M70 417T70 494T124 618T248 666Q319 666 374 624T429 515Q429 485 418 459T392 417T361 389T335 371T324 363L338 354Q352 344 366 334T382 323Q457 264 457 174Q457 95 399 37T249 -22Q159 -22 101 29T43 155Q43 263 172 335L154 348Q133 361 127 368Q70 417 70 494ZM286 386L292 390Q298 394 301 396T311 403T323 413T334 425T345 438T355 454T364 471T369 491T371 513Q371 556 342 586T275 624Q268 625 242 625Q201 625 165 599T128 534Q128 511 141 492T167 463T217 431Q224 426 228 424L286 386ZM250 21Q308 21 350 55T392 137Q392 154 387 169T375 194T353 216T330 234T301 253T274 270Q260 279 244 289T218 306L210 311Q204 311 181 294T133 239T107 157Q107 98 150 60T250 21Z"/>
        </defs>
        <g stroke="currentColor" fill="currentColor" stroke-width="0" transform="scale(1,-1)">
          <g data-mml-node="math">
            <g data-mml-node="mtext" data-semantic-type="text" data-semantic-role="integer" data-semantic-font="normal" data-semantic-annotation="clearspeak:unit" data-semantic-id="0" data-semantic-speech="8">
              <use data-c="38" xlink:href="#quadratic-points-1-MJX-7-TEX-N-38"/>
            </g>
          </g>
        </g>
      </svg>
    </g>
  </g>
  <g id="quadratic-points-1-label-6" transform="translate(24.0,166.5) translate(-9.0,-6.2)">
    <g id="quadratic-points-1-g-11">
      <svg xmlns:xlink="http://www.w3.org/1999/xlink" style="vertical-align: -0.400px" width="9.048px" height="12.456px" role="img" focusable="false" viewBox="0 -666 500 688" x="0.0" y="0.0">
        <defs>
          <path id="quadratic-points-1-MJX-8-TEX-N-35" d="M164 157Q164 133 148 117T109 101H102Q148 22 224 22Q294 22 326 82Q345 115 345 210Q345 313 318 349Q292 382 260 382H254Q176 382 136 314Q132 307 129 306T114 304Q97 304 95 310Q93 314 93 485V614Q93 664 98 664Q100 666 102 666Q103 666 123 658T178 642T253 634Q324 634 389 662Q397 666 402 666Q410 666 410 648V635Q328 538 205 538Q174 538 149 544L139 546V374Q158 388 169 396T205 412T256 420Q337 420 393 355T449 201Q449 109 385 44T229 -22Q148 -22 99 32T50 154Q50 178 61 192T84 210T107 214Q132 214 148 197T164 157Z"/>
        </defs>
        <g stroke="currentColor" fill="currentColor" stroke-width="0" transform="scale(1,-1)">
          <g data-mml-node="math">
            <g data-mml-node="mtext" data-semantic-type="text" data-semantic-role="integer" data-semantic-font="normal" data-semantic-annotation="clearspeak:unit" data-semantic-id="0" data-semantic-speech="5">
              <use data-c="35" xlink:href="#quadratic-points-1-MJX-8-TEX-N-35"/>
            </g>
          </g>
        </g>
      </svg>
    </g>
  </g>
  <g id="quadratic-points-1-label-7" transform="translate(24.0,51.2) translate(-18.1,-6.2)">
    <g id="quadratic-points-1-g-12">
      <svg xmlns:xlink="http://www.w3.org/1999/xlink" style="vertical-align: -0.400px" width="18.096px" height="12.456px" role="img" focusable="false" viewBox="0 -666 1000 688" x="0.0" y="0.0">
        <defs>
          <path id="quadratic-points-1-MJX-9-TEX-N-31" d="M213 578L200 573Q186 568 160 563T102 556H83V602H102Q149 604 189 617T245 641T273 663Q275 666 285 666Q294 666 302 660V361L303 61Q310 54 315 52T339 48T401 46H427V0H416Q395 3 257 3Q121 3 100 0H88V46H114Q136 46 152 46T177 47T193 50T201 52T207 57T213 61V578Z"/>
          <path id="quadratic-points-1-MJX-9-TEX-N-30" d="M96 585Q152 666 249 666Q297 666 345 640T423 548Q460 465 460 320Q460 165 417 83Q397 41 362 16T301 -15T250 -22Q224 -22 198 -16T137 16T82 83Q39 165 39 320Q39 494 96 585ZM321 597Q291 629 250 629Q208 629 178 597Q153 571 145 525T137 333Q137 175 145 125T181 46Q209 16 250 16Q290 16 318 46Q347 76 354 130T362 333Q362 478 354 524T321 597Z"/>
        </defs>
        <g stroke="currentColor" fill="currentColor" stroke-width="0" transform="scale(1,-1)">
          <g data-mml-node="math">
            <g data-mml-node="mtext" data-semantic-type="text" data-semantic-role="unknown" data-semantic-font="normal" data-semantic-annotation="clearspeak:unit" data-semantic-id="0" data-semantic-speech="10">
              <use data-c="31" xlink:href="#quadratic-points-1-MJX-9-TEX-N-31"/>
              <use data-c="30" xlink:href="#quadratic-points-1-MJX-9-TEX-N-30" transform="translate(500,0)"/>
            </g>
          </g>
        </g>
      </svg>
    </g>
  </g>
  <g id="quadratic-points-1-g-2">
    <g transform="translate(70.0,184.6) translate(0.0,-18.1)">
      <g id="quadratic-points-1-g-13">
        <svg xmlns:xlink="http://www.w3.org/1999/xlink" style="vertical-align: -4.528px" width="40.232px" height="18.096px" role="img" focusable="false" viewBox="0 -750 2222.7 1000" x="0.0" y="0.0">
          <defs>
            <path id="quadratic-points-1-MJX-10-TEX-N-28" d="M94 250Q94 319 104 381T127 488T164 576T202 643T244 695T277 729T302 750H315H319Q333 750 333 741Q333 738 316 720T275 667T226 581T184 443T167 250T184 58T225 -81T274 -167T316 -220T333 -241Q333 -250 318 -250H315H302L274 -226Q180 -141 137 -14T94 250Z"/>
            <path id="quadratic-points-1-MJX-10-TEX-N-31" d="M213 578L200 573Q186 568 160 563T102 556H83V602H102Q149 604 189 617T245 641T273 663Q275 666 285 666Q294 666 302 660V361L303 61Q310 54 315 52T339 48T401 46H427V0H416Q395 3 257 3Q121 3 100 0H88V46H114Q136 46 152 46T177 47T193 50T201 52T207 57T213 61V578Z"/>
            <path id="quadratic-points-1-MJX-10-TEX-N-2C" d="M78 35T78 60T94 103T137 121Q165 121 187 96T210 8Q210 -27 201 -60T180 -117T154 -158T130 -185T117 -194Q113 -194 104 -185T95 -172Q95 -168 106 -156T131 -126T157 -76T173 -3V9L172 8Q170 7 167 6T161 3T152 1T140 0Q113 0 96 17Z"/>
            <path id="quadratic-points-1-MJX-10-TEX-N-34" d="M462 0Q444 3 333 3Q217 3 199 0H190V46H221Q241 46 248 46T265 48T279 53T286 61Q287 63 287 115V165H28V211L179 442Q332 674 334 675Q336 677 355 677H373L379 671V211H471V165H379V114Q379 73 379 66T385 54Q393 47 442 46H471V0H462ZM293 211V545L74 212L183 211H293Z"/>
            <path id="quadratic-points-1-MJX-10-TEX-N-29" d="M60 749L64 750Q69 750 74 750H86L114 726Q208 641 251 514T294 250Q294 182 284 119T261 12T224 -76T186 -143T145 -194T113 -227T90 -246Q87 -249 86 -250H74Q66 -250 63 -250T58 -247T55 -238Q56 -237 66 -225Q221 -64 221 250T66 725Q56 737 55 738Q55 746 60 749Z"/>
          </defs>
          <g stroke="currentColor" fill="currentColor" stroke-width="0" transform="scale(1,-1)">
            <g data-mml-node="math" data-semantic-type="fenced" data-semantic-role="leftright" data-semantic-id="6" data-semantic-children="5" data-semantic-content="0,4" data-semantic-speech="left parenthesis 1 comma 4 right parenthesis">
              <g data-mml-node="mo" data-semantic-type="fence" data-semantic-role="open" data-semantic-id="0" data-semantic-parent="6" data-semantic-operator="fenced" data-semantic-speech="left parenthesis">
                <use data-c="28" xlink:href="#quadratic-points-1-MJX-10-TEX-N-28"/>
              </g>
              <g data-mml-node="mrow" data-semantic-type="punctuated" data-semantic-role="sequence" data-semantic-id="5" data-semantic-children="1,2,3" data-semantic-content="2" data-semantic-parent="6" data-semantic-speech="1 comma 4" transform="translate(389,0)">
                <g data-mml-node="mn" data-semantic-type="number" data-semantic-role="integer" data-semantic-font="normal" data-semantic-annotation="clearspeak:simple" data-semantic-id="1" data-semantic-parent="5" data-semantic-speech="1">
                  <use data-c="31" xlink:href="#quadratic-points-1-MJX-10-TEX-N-31"/>
                </g>
                <g data-mml-node="mo" data-semantic-type="punctuation" data-semantic-role="comma" data-semantic-id="2" data-semantic-parent="5" data-semantic-operator="punctuated" data-semantic-speech="comma" transform="translate(500,0)">
                  <use data-c="2C" xlink:href="#quadratic-points-1-MJX-10-TEX-N-2C"/>
                </g>
                <g data-mml-node="mn" data-semantic-type="number" data-semantic-role="integer" data-semantic-font="normal" data-semantic-annotation="clearspeak:simple" data-semantic-id="3" data-semantic-parent="5" data-semantic-speech="4" transform="translate(944.7,0)">
                  <use data-c="34" xlink:href="#quadratic-points-1-MJX-10-TEX-N-34"/>
                </g>
              </g>
              <g data-mml-node="mo" data-semantic-type="fence" data-semantic-role="close" data-semantic-id="4" data-semantic-parent="6" data-semantic-operator="fenced" data-semantic-speech="right parenthesis" transform="translate(1833.7,0)">
                <use data-c="29" xlink:href="#quadratic-points-1-MJX-10-TEX-N-29"/>
              </g>
            </g>
          </g>
        </svg>
      </g>
    </g>
    <circle cx="65.0" cy="189.6" r="4" stroke="black" stroke-width="2" fill="red"/>
  </g>
  <g id="quadratic-points-1-g-3">
    <g transform="translate(130.0,230.8) translate(0.0,-18.1)">
      <g id="quadratic-points-1-g-14">
        <svg xmlns:xlink="http://www.w3.org/1999/xlink" style="vertical-align: -4.528px" width="40.232px" height="18.096px" role="img" focusable="false" viewBox="0 -750 2222.7 1000" x="0.0" y="0.0">
          <defs>
            <path id="quadratic-points-1-MJX-11-TEX-N-28" d="M94 250Q94 319 104 381T127 488T164 576T202 643T244 695T277 729T302 750H315H319Q333 750 333 741Q333 738 316 720T275 667T226 581T184 443T167 250T184 58T225 -81T274 -167T316 -220T333 -241Q333 -250 318 -250H315H302L274 -226Q180 -141 137 -14T94 250Z"/>
            <path id="quadratic-points-1-MJX-11-TEX-N-33" d="M127 463Q100 463 85 480T69 524Q69 579 117 622T233 665Q268 665 277 664Q351 652 390 611T430 522Q430 470 396 421T302 350L299 348Q299 347 308 345T337 336T375 315Q457 262 457 175Q457 96 395 37T238 -22Q158 -22 100 21T42 130Q42 158 60 175T105 193Q133 193 151 175T169 130Q169 119 166 110T159 94T148 82T136 74T126 70T118 67L114 66Q165 21 238 21Q293 21 321 74Q338 107 338 175V195Q338 290 274 322Q259 328 213 329L171 330L168 332Q166 335 166 348Q166 366 174 366Q202 366 232 371Q266 376 294 413T322 525V533Q322 590 287 612Q265 626 240 626Q208 626 181 615T143 592T132 580H135Q138 579 143 578T153 573T165 566T175 555T183 540T186 520Q186 498 172 481T127 463Z"/>
            <path id="quadratic-points-1-MJX-11-TEX-N-2C" d="M78 35T78 60T94 103T137 121Q165 121 187 96T210 8Q210 -27 201 -60T180 -117T154 -158T130 -185T117 -194Q113 -194 104 -185T95 -172Q95 -168 106 -156T131 -126T157 -76T173 -3V9L172 8Q170 7 167 6T161 3T152 1T140 0Q113 0 96 17Z"/>
            <path id="quadratic-points-1-MJX-11-TEX-N-32" d="M109 429Q82 429 66 447T50 491Q50 562 103 614T235 666Q326 666 387 610T449 465Q449 422 429 383T381 315T301 241Q265 210 201 149L142 93L218 92Q375 92 385 97Q392 99 409 186V189H449V186Q448 183 436 95T421 3V0H50V19V31Q50 38 56 46T86 81Q115 113 136 137Q145 147 170 174T204 211T233 244T261 278T284 308T305 340T320 369T333 401T340 431T343 464Q343 527 309 573T212 619Q179 619 154 602T119 569T109 550Q109 549 114 549Q132 549 151 535T170 489Q170 464 154 447T109 429Z"/>
            <path id="quadratic-points-1-MJX-11-TEX-N-29" d="M60 749L64 750Q69 750 74 750H86L114 726Q208 641 251 514T294 250Q294 182 284 119T261 12T224 -76T186 -143T145 -194T113 -227T90 -246Q87 -249 86 -250H74Q66 -250 63 -250T58 -247T55 -238Q56 -237 66 -225Q221 -64 221 250T66 725Q56 737 55 738Q55 746 60 749Z"/>
          </defs>
          <g stroke="currentColor" fill="currentColor" stroke-width="0" transform="scale(1,-1)">
            <g data-mml-node="math" data-semantic-type="fenced" data-semantic-role="leftright" data-semantic-id="6" data-semantic-children="5" data-semantic-content="0,4" data-semantic-speech="left parenthesis 3 comma 2 right parenthesis">
              <g data-mml-node="mo" data-semantic-type="fence" data-semantic-role="open" data-semantic-id="0" data-semantic-parent="6" data-semantic-operator="fenced" data-semantic-speech="left parenthesis">
                <use data-c="28" xlink:href="#quadratic-points-1-MJX-11-TEX-N-28"/>
              </g>
              <g data-mml-node="mrow" data-semantic-type="punctuated" data-semantic-role="sequence" data-semantic-id="5" data-semantic-children="1,2,3" data-semantic-content="2" data-semantic-parent="6" data-semantic-speech="3 comma 2" transform="translate(389,0)">
                <g data-mml-node="mn" data-semantic-type="number" data-semantic-role="integer" data-semantic-font="normal" data-semantic-annotation="clearspeak:simple" data-semantic-id="1" data-semantic-parent="5" data-semantic-speech="3">
                  <use data-c="33" xlink:href="#quadratic-points-1-MJX-11-TEX-N-33"/>
                </g>
                <g data-mml-node="mo" data-semantic-type="punctuation" data-semantic-role="comma" data-semantic-id="2" data-semantic-parent="5" data-semantic-operator="punctuated" data-semantic-speech="comma" transform="translate(500,0)">
                  <use data-c="2C" xlink:href="#quadratic-points-1-MJX-11-TEX-N-2C"/>
                </g>
                <g data-mml-node="mn" data-semantic-type="number" data-semantic-role="integer" data-semantic-font="normal" data-semantic-annotation="clearspeak:simple" data-semantic-id="3" data-semantic-parent="5" data-semantic-speech="2" transform="translate(944.7,0)">
                  <use data-c="32" xlink:href="#quadratic-points-1-MJX-11-TEX-N-32"/>
                </g>
              </g>
              <g data-mml-node="mo" data-semantic-type="fence" data-semantic-role="close" data-semantic-id="4" data-semantic-parent="6" data-semantic-operator="fenced" data-semantic-speech="right parenthesis" transform="translate(1833.7,0)">
                <use data-c="29" xlink:href="#quadratic-points-1-MJX-11-TEX-N-29"/>
              </g>
            </g>
          </g>
        </svg>
      </g>
    </g>
    <circle cx="125.0" cy="235.8" r="4" stroke="black" stroke-width="2" fill="red"/>
  </g>
  <g id="quadratic-points-1-g-4">
    <g transform="translate(250.0,46.2) translate(0.0,-18.1)">
      <g id="quadratic-points-1-g-15">
        <svg xmlns:xlink="http://www.w3.org/1999/xlink" style="vertical-align: -4.528px" width="49.280px" height="18.096px" role="img" focusable="false" viewBox="0 -750 2722.7 1000" x="0.0" y="0.0">
          <defs>
            <path id="quadratic-points-1-MJX-12-TEX-N-28" d="M94 250Q94 319 104 381T127 488T164 576T202 643T244 695T277 729T302 750H315H319Q333 750 333 741Q333 738 316 720T275 667T226 581T184 443T167 250T184 58T225 -81T274 -167T316 -220T333 -241Q333 -250 318 -250H315H302L274 -226Q180 -141 137 -14T94 250Z"/>
            <path id="quadratic-points-1-MJX-12-TEX-N-37" d="M55 458Q56 460 72 567L88 674Q88 676 108 676H128V672Q128 662 143 655T195 646T364 644H485V605L417 512Q408 500 387 472T360 435T339 403T319 367T305 330T292 284T284 230T278 162T275 80Q275 66 275 52T274 28V19Q270 2 255 -10T221 -22Q210 -22 200 -19T179 0T168 40Q168 198 265 368Q285 400 349 489L395 552H302Q128 552 119 546Q113 543 108 522T98 479L95 458V455H55V458Z"/>
            <path id="quadratic-points-1-MJX-12-TEX-N-2C" d="M78 35T78 60T94 103T137 121Q165 121 187 96T210 8Q210 -27 201 -60T180 -117T154 -158T130 -185T117 -194Q113 -194 104 -185T95 -172Q95 -168 106 -156T131 -126T157 -76T173 -3V9L172 8Q170 7 167 6T161 3T152 1T140 0Q113 0 96 17Z"/>
            <path id="quadratic-points-1-MJX-12-TEX-N-31" d="M213 578L200 573Q186 568 160 563T102 556H83V602H102Q149 604 189 617T245 641T273 663Q275 666 285 666Q294 666 302 660V361L303 61Q310 54 315 52T339 48T401 46H427V0H416Q395 3 257 3Q121 3 100 0H88V46H114Q136 46 152 46T177 47T193 50T201 52T207 57T213 61V578Z"/>
            <path id="quadratic-points-1-MJX-12-TEX-N-30" d="M96 585Q152 666 249 666Q297 666 345 640T423 548Q460 465 460 320Q460 165 417 83Q397 41 362 16T301 -15T250 -22Q224 -22 198 -16T137 16T82 83Q39 165 39 320Q39 494 96 585ZM321 597Q291 629 250 629Q208 629 178 597Q153 571 145 525T137 333Q137 175 145 125T181 46Q209 16 250 16Q290 16 318 46Q347 76 354 130T362 333Q362 478 354 524T321 597Z"/>
            <path id="quadratic-points-1-MJX-12-TEX-N-29" d="M60 749L64 750Q69 750 74 750H86L114 726Q208 641 251 514T294 250Q294 182 284 119T261 12T224 -76T186 -143T145 -194T113 -227T90 -246Q87 -249 86 -250H74Q66 -250 63 -250T58 -247T55 -238Q56 -237 66 -225Q221 -64 221 250T66 725Q56 737 55 738Q55 746 60 749Z"/>
          </defs>
          <g stroke="currentColor" fill="currentColor" stroke-width="0" transform="scale(1,-1)">
            <g data-mml-node="math" data-semantic-type="fenced" data-semantic-role="leftright" data-semantic-id="6" data-semantic-children="5" data-semantic-content="0,4" data-semantic-speech="left parenthesis 7 comma 10 right parenthesis">
              <g data-mml-node="mo" data-semantic-type="fence" data-semantic-role="open" data-semantic-id="0" data-semantic-parent="6" data-semantic-operator="fenced" data-semantic-speech="left parenthesis">
                <use data-c="28" xlink:href="#quadratic-points-1-MJX-12-TEX-N-28"/>
              </g>
              <g data-mml-node="mrow" data-semantic-type="punctuated" data-semantic-role="sequence" data-semantic-id="5" data-semantic-children="1,2,3" data-semantic-content="2" data-semantic-parent="6" data-semantic-speech="7 comma 10" transform="translate(389,0)">
                <g data-mml-node="mn" data-semantic-type="number" data-semantic-role="integer" data-semantic-font="normal" data-semantic-annotation="clearspeak:simple" data-semantic-id="1" data-semantic-parent="5" data-semantic-speech="7">
                  <use data-c="37" xlink:href="#quadratic-points-1-MJX-12-TEX-N-37"/>
                </g>
                <g data-mml-node="mo" data-semantic-type="punctuation" data-semantic-role="comma" data-semantic-id="2" data-semantic-parent="5" data-semantic-operator="punctuated" data-semantic-speech="comma" transform="translate(500,0)">
                  <use data-c="2C" xlink:href="#quadratic-points-1-MJX-12-TEX-N-2C"/>
                </g>
                <g data-mml-node="mn" data-semantic-type="number" data-semantic-role="integer" data-semantic-font="normal" data-semantic-annotation="clearspeak:simple" data-semantic-id="3" data-semantic-parent="5" data-semantic-speech="10" transform="translate(944.7,0)">
                  <use data-c="31" xlink:href="#quadratic-points-1-MJX-12-TEX-N-31"/>
                  <use data-c="30" xlink:href="#quadratic-points-1-MJX-12-TEX-N-30" transform="translate(500,0)"/>
                </g>
              </g>
              <g data-mml-node="mo" data-semantic-type="fence" data-semantic-role="close" data-semantic-id="4" data-semantic-parent="6" data-semantic-operator="fenced" data-semantic-speech="right parenthesis" transform="translate(2333.7,0)">
                <use data-c="29" xlink:href="#quadratic-points-1-MJX-12-TEX-N-29"/>
              </g>
            </g>
          </g>
        </svg>
      </g>
    </g>
    <circle cx="245.0" cy="51.2" r="4" stroke="black" stroke-width="2" fill="red"/>
  </g>
</svg>
