<svg xmlns="http://www.w3.org/2000/svg" id="velocity-graph-prep-2-figure" width="310" height="310" viewBox="0 0 310 310">
  <defs>
    <clipPath id="velocity-graph-prep-2-clipPath-0">
      <rect x="5.0" y="5.0" width="300.0" height="300.0"/>
    </clipPath>
    <clipPath id="velocity-graph-prep-2-clipPath-1">
      <rect x="5.0" y="5.0" width="300.0" height="300.0"/>
    </clipPath>
  </defs>
  <g id="velocity-graph-prep-2-axes" stroke="black" stroke-width="2">
    <line id="velocity-graph-prep-2-line-0" x1="5.0" y1="281.9" x2="305.0" y2="281.9" stroke="black" stroke-width="2"/>
    <g id="velocity-graph-prep-2-g-0">
      <line id="velocity-graph-prep-2-line-1" x1="57.9" y1="284.9" x2="57.9" y2="278.9"/>
      <line id="velocity-graph-prep-2-line-2" x1="75.6" y1="284.9" x2="75.6" y2="278.9"/>
      <line id="velocity-graph-prep-2-line-3" x1="93.2" y1="284.9" x2="93.2" y2="278.9"/>
      <line id="velocity-graph-prep-2-line-4" x1="110.9" y1="284.9" x2="110.9" y2="278.9"/>
      <line id="velocity-graph-prep-2-line-5" x1="128.5" y1="284.9" x2="128.5" y2="278.9"/>
      <line id="velocity-graph-prep-2-line-6" x1="146.2" y1="284.9" x2="146.2" y2="278.9"/>
      <line id="velocity-graph-prep-2-line-7" x1="163.8" y1="284.9" x2="163.8" y2="278.9"/>
      <line id="velocity-graph-prep-2-line-8" x1="181.5" y1="284.9" x2="181.5" y2="278.9"/>
      <line id="velocity-graph-prep-2-line-9" x1="199.1" y1="284.9" x2="199.1" y2="278.9"/>
      <line id="velocity-graph-prep-2-line-10" x1="216.8" y1="284.9" x2="216.8" y2="278.9"/>
      <line id="velocity-graph-prep-2-line-11" x1="234.4" y1="284.9" x2="234.4" y2="278.9"/>
      <line id="velocity-graph-prep-2-line-12" x1="252.1" y1="284.9" x2="252.1" y2="278.9"/>
      <line id="velocity-graph-prep-2-line-13" x1="269.7" y1="284.9" x2="269.7" y2="278.9"/>
      <line id="velocity-graph-prep-2-line-14" x1="287.4" y1="284.9" x2="287.4" y2="278.9"/>
      <line id="velocity-graph-prep-2-line-15" x1="305.0" y1="284.9" x2="305.0" y2="278.9"/>
      <line id="velocity-graph-prep-2-line-16" x1="128.5" y1="284.9" x2="128.5" y2="278.9"/>
      <line id="velocity-graph-prep-2-line-17" x1="216.8" y1="284.9" x2="216.8" y2="278.9"/>
    </g>
    <line id="velocity-graph-prep-2-line-18" x1="40.3" y1="305.0" x2="40.3" y2="5.0" stroke="black" stroke-width="2"/>
    <g id="velocity-graph-prep-2-g-1">
      <line id="velocity-graph-prep-2-line-19" x1="37.3" y1="258.8" x2="43.3" y2="258.8"/>
      <line id="velocity-graph-prep-2-line-20" x1="37.3" y1="235.8" x2="43.3" y2="235.8"/>
      <line id="velocity-graph-prep-2-line-21" x1="37.3" y1="212.7" x2="43.3" y2="212.7"/>
      <line id="velocity-graph-prep-2-line-22" x1="37.3" y1="189.6" x2="43.3" y2="189.6"/>
      <line id="velocity-graph-prep-2-line-23" x1="37.3" y1="166.5" x2="43.3" y2="166.5"/>
      <line id="velocity-graph-prep-2-line-24" x1="37.3" y1="143.5" x2="43.3" y2="143.5"/>
      <line id="velocity-graph-prep-2-line-25" x1="37.3" y1="120.4" x2="43.3" y2="120.4"/>
      <line id="velocity-graph-prep-2-line-26" x1="37.3" y1="97.3" x2="43.3" y2="97.3"/>
      <line id="velocity-graph-prep-2-line-27" x1="37.3" y1="74.2" x2="43.3" y2="74.2"/>
      <line id="velocity-graph-prep-2-line-28" x1="37.3" y1="51.2" x2="43.3" y2="51.2"/>
      <line id="velocity-graph-prep-2-line-29" x1="37.3" y1="166.5" x2="43.3" y2="166.5"/>
      <line id="velocity-graph-prep-2-line-30" x1="37.3" y1="51.2" x2="43.3" y2="51.2"/>
    </g>
  </g>
  <g id="velocity-graph-prep-2-label-0" transform="translate(301.0,277.9) translate(-6.5,-11.5)">
    <g id="velocity-graph-prep-2-g-2">
      <svg xmlns:xlink="http://www.w3.org/1999/xlink" style="vertical-align: -0.200px" width="6.536px" height="11.528px" role="img" focusable="false" viewBox="0 -626 361 637" x="0.0" y="0.0">
        <defs>
          <path id="velocity-graph-prep-2-MJX-2-TEX-I-1D461" d="M26 385Q19 392 19 395Q19 399 22 411T27 425Q29 430 36 430T87 431H140L159 511Q162 522 166 540T173 566T179 586T187 603T197 615T211 624T229 626Q247 625 254 615T261 596Q261 589 252 549T232 470L222 433Q222 431 272 431H323Q330 424 330 420Q330 398 317 385H210L174 240Q135 80 135 68Q135 26 162 26Q197 26 230 60T283 144Q285 150 288 151T303 153H307Q322 153 322 145Q322 142 319 133Q314 117 301 95T267 48T216 6T155 -11Q125 -11 98 4T59 56Q57 64 57 83V101L92 241Q127 382 128 383Q128 385 77 385H26Z"/>
        </defs>
        <g stroke="currentColor" fill="currentColor" stroke-width="0" transform="scale(1,-1)">
          <g data-mml-node="math">
            <g data-mml-node="mi" data-semantic-type="identifier" data-semantic-role="latinletter" data-semantic-font="italic" data-semantic-annotation="clearspeak:simple" data-semantic-id="0" data-semantic-speech="t">
              <use data-c="1D461" xlink:href="#velocity-graph-prep-2-MJX-2-TEX-I-1D461"/>
            </g>
          </g>
        </g>
      </svg>
    </g>
  </g>
  <g id="velocity-graph-prep-2-label-1" transform="translate(44.3,9.0) translate(0.0,-0.0)">
    <g id="velocity-graph-prep-2-g-3">
      <svg xmlns:xlink="http://www.w3.org/1999/xlink" style="vertical-align: -4.528px" width="30.024px" height="18.096px" role="img" focusable="false" viewBox="0 -750 1659 1000" x="0.0" y="0.0">
        <defs>
          <path id="velocity-graph-prep-2-MJX-3-TEX-I-1D451" d="M366 683Q367 683 438 688T511 694Q523 694 523 686Q523 679 450 384T375 83T374 68Q374 26 402 26Q411 27 422 35Q443 55 463 131Q469 151 473 152Q475 153 483 153H487H491Q506 153 506 145Q506 140 503 129Q490 79 473 48T445 8T417 -8Q409 -10 393 -10Q359 -10 336 5T306 36L300 51Q299 52 296 50Q294 48 292 46Q233 -10 172 -10Q117 -10 75 30T33 157Q33 205 53 255T101 341Q148 398 195 420T280 442Q336 442 364 400Q369 394 369 396Q370 400 396 505T424 616Q424 629 417 632T378 637H357Q351 643 351 645T353 664Q358 683 366 683ZM352 326Q329 405 277 405Q242 405 210 374T160 293Q131 214 119 129Q119 126 119 118T118 106Q118 61 136 44T179 26Q233 26 290 98L298 109L352 326Z"/>
          <path id="velocity-graph-prep-2-MJX-3-TEX-N-2061" d=""/>
          <path id="velocity-graph-prep-2-MJX-3-TEX-N-28" d="M94 250Q94 319 104 381T127 488T164 576T202 643T244 695T277 729T302 750H315H319Q333 750 333 741Q333 738 316 720T275 667T226 581T184 443T167 250T184 58T225 -81T274 -167T316 -220T333 -241Q333 -250 318 -250H315H302L274 -226Q180 -141 137 -14T94 250Z"/>
          <path id="velocity-graph-prep-2-MJX-3-TEX-I-1D461" d="M26 385Q19 392 19 395Q19 399 22 411T27 425Q29 430 36 430T87 431H140L159 511Q162 522 166 540T173 566T179 586T187 603T197 615T211 624T229 626Q247 625 254 615T261 596Q261 589 252 549T232 470L222 433Q222 431 272 431H323Q330 424 330 420Q330 398 317 385H210L174 240Q135 80 135 68Q135 26 162 26Q197 26 230 60T283 144Q285 150 288 151T303 153H307Q322 153 322 145Q322 142 319 133Q314 117 301 95T267 48T216 6T155 -11Q125 -11 98 4T59 56Q57 64 57 83V101L92 241Q127 382 128 383Q128 385 77 385H26Z"/>
          <path id="velocity-graph-prep-2-MJX-3-TEX-N-29" d="M60 749L64 750Q69 750 74 750H86L114 726Q208 641 251 514T294 250Q294 182 284 119T261 12T224 -76T186 -143T145 -194T113 -227T90 -246Q87 -249 86 -250H74Q66 -250 63 -250T58 -247T55 -238Q56 -237 66 -225Q221 -64 221 250T66 725Q56 737 55 738Q55 746 60 749Z"/>
        </defs>
        <g stroke="currentColor" fill="currentColor" stroke-width="0" transform="scale(1,-1)">
          <g data-mml-node="math" data-semantic-type="appl" data-semantic-role="simple function" data-semantic-annotation="clearspeak:simple" data-semantic-id="6" data-semantic-children="0,4" data-semantic-content="5,0" data-semantic-speech="d left parenthesis t right parenthesis">
            <g data-mml-node="mi" data-semantic-type="identifier" data-semantic-role="simple function" data-semantic-font="italic" data-semantic-annotation="clearspeak:simple" data-semantic-id="0" data-semantic-parent="6" data-semantic-operator="appl" data-semantic-speech="d">
              <use data-c="1D451" xlink:href="#velocity-graph-prep-2-MJX-3-TEX-I-1D451"/>
            </g>
            <g data-mml-node="mo" data-semantic-type="punctuation" data-semantic-role="application" data-semantic-id="5" data-semantic-parent="6" data-semantic-added="true" data-semantic-operator="appl" data-semantic-speech="of" transform="translate(520,0)">
              <use data-c="2061" xlink:href="#velocity-graph-prep-2-MJX-3-TEX-N-2061"/>
            </g>
            <g data-mml-node="mrow" data-semantic-type="fenced" data-semantic-role="leftright" data-semantic-id="4" data-semantic-children="2" data-semantic-content="1,3" data-semantic-parent="6" data-semantic-speech="left parenthesis t right parenthesis" transform="translate(520,0)">
              <g data-mml-node="mo" data-semantic-type="fence" data-semantic-role="open" data-semantic-id="1" data-semantic-parent="4" data-semantic-operator="fenced" data-semantic-speech="left parenthesis">
                <use data-c="28" xlink:href="#velocity-graph-prep-2-MJX-3-TEX-N-28"/>
              </g>
              <g data-mml-node="mi" data-semantic-type="identifier" data-semantic-role="latinletter" data-semantic-font="italic" data-semantic-annotation="clearspeak:simple" data-semantic-id="2" data-semantic-parent="4" data-semantic-speech="t" transform="translate(389,0)">
                <use data-c="1D461" xlink:href="#velocity-graph-prep-2-MJX-3-TEX-I-1D461"/>
              </g>
              <g data-mml-node="mo" data-semantic-type="fence" data-semantic-role="close" data-semantic-id="3" data-semantic-parent="4" data-semantic-operator="fenced" data-semantic-speech="right parenthesis" transform="translate(750,0)">
                <use data-c="29" xlink:href="#velocity-graph-prep-2-MJX-3-TEX-N-29"/>
              </g>
            </g>
          </g>
        </g>
      </svg>
    </g>
  </g>
  <g id="velocity-graph-prep-2-label-2" transform="translate(128.5,292.9) translate(-4.5,-0.0)">
    <g id="velocity-graph-prep-2-g-4">
      <svg xmlns:xlink="http://www.w3.org/1999/xlink" style="vertical-align: -0.400px" width="9.048px" height="12.456px" role="img" focusable="false" viewBox="0 -666 500 688" x="0.0" y="0.0">
        <defs>
          <path id="velocity-graph-prep-2-MJX-4-TEX-N-35" d="M164 157Q164 133 148 117T109 101H102Q148 22 224 22Q294 22 326 82Q345 115 345 210Q345 313 318 349Q292 382 260 382H254Q176 382 136 314Q132 307 129 306T114 304Q97 304 95 310Q93 314 93 485V614Q93 664 98 664Q100 666 102 666Q103 666 123 658T178 642T253 634Q324 634 389 662Q397 666 402 666Q410 666 410 648V635Q328 538 205 538Q174 538 149 544L139 546V374Q158 388 169 396T205 412T256 420Q337 420 393 355T449 201Q449 109 385 44T229 -22Q148 -22 99 32T50 154Q50 178 61 192T84 210T107 214Q132 214 148 197T164 157Z"/>
        </defs>
        <g stroke="currentColor" fill="currentColor" stroke-width="0" transform="scale(1,-1)">
          <g data-mml-node="math">
            <g data-mml-node="mtext" data-semantic-type="text" data-semantic-role="integer" data-semantic-font="normal" data-semantic-annotation="clearspeak:unit" data-semantic-id="0" data-semantic-speech="5">
              <use data-c="35" xlink:href="#velocity-graph-prep-2-MJX-4-TEX-N-35"/>
            </g>
          </g>
        </g>
      </svg>
    </g>
  </g>
  <g id="velocity-graph-prep-2-label-3" transform="translate(216.8,292.9) translate(-9.0,-0.0)">
    <g id="velocity-graph-prep-2-g-5">
      <svg xmlns:xlink="http://www.w3.org/1999/xlink" style="vertical-align: -0.400px" width="18.096px" height="12.456px" role="img" focusable="false" viewBox="0 -666 1000 688" x="0.0" y="0.0">
        <defs>
          <path id="velocity-graph-prep-2-MJX-5-TEX-N-31" d="M213 578L200 573Q186 568 160 563T102 556H83V602H102Q149 604 189 617T245 641T273 663Q275 666 285 666Q294 666 302 660V361L303 61Q310 54 315 52T339 48T401 46H427V0H416Q395 3 257 3Q121 3 100 0H88V46H114Q136 46 152 46T177 47T193 50T201 52T207 57T213 61V578Z"/>
          <path id="velocity-graph-prep-2-MJX-5-TEX-N-30" d="M96 585Q152 666 249 666Q297 666 345 640T423 548Q460 465 460 320Q460 165 417 83Q397 41 362 16T301 -15T250 -22Q224 -22 198 -16T137 16T82 83Q39 165 39 320Q39 494 96 585ZM321 597Q291 629 250 629Q208 629 178 597Q153 571 145 525T137 333Q137 175 145 125T181 46Q209 16 250 16Q290 16 318 46Q347 76 354 130T362 333Q362 478 354 524T321 597Z"/>
        </defs>
        <g stroke="currentColor" fill="currentColor" stroke-width="0" transform="scale(1,-1)">
          <g data-mml-node="math">
            <g data-mml-node="mtext" data-semantic-type="text" data-semantic-role="unknown" data-semantic-font="normal" data-semantic-annotation="clearspeak:unit" data-semantic-id="0" data-semantic-speech="10">
              <use data-c="31" xlink:href="#velocity-graph-prep-2-MJX-5-TEX-N-31"/>
              <use data-c="30" xlink:href="#velocity-graph-prep-2-MJX-5-TEX-N-30" transform="translate(500,0)"/>
            </g>
          </g>
        </g>
      </svg>
    </g>
  </g>
  <g id="velocity-graph-prep-2-label-4" transform="translate(29.3,166.5) translate(-9.0,-6.2)">
    <g id="velocity-graph-prep-2-g-6">
      <svg xmlns:xlink="http://www.w3.org/1999/xlink" style="vertical-align: -0.400px" width="9.048px" height="12.456px" role="img" focusable="false" viewBox="0 -666 500 688" x="0.0" y="0.0">
        <defs>
          <path id="velocity-graph-prep-2-MJX-6-TEX-N-35" d="M164 157Q164 133 148 117T109 101H102Q148 22 224 22Q294 22 326 82Q345 115 345 210Q345 313 318 349Q292 382 260 382H254Q176 382 136 314Q132 307 129 306T114 304Q97 304 95 310Q93 314 93 485V614Q93 664 98 664Q100 666 102 666Q103 666 123 658T178 642T253 634Q324 634 389 662Q397 666 402 666Q410 666 410 648V635Q328 538 205 538Q174 538 149 544L139 546V374Q158 388 169 396T205 412T256 420Q337 420 393 355T449 201Q449 109 385 44T229 -22Q148 -22 99 32T50 154Q50 178 61 192T84 210T107 214Q132 214 148 197T164 157Z"/>
        </defs>
        <g stroke="currentColor" fill="currentColor" stroke-width="0" transform="scale(1,-1)">
          <g data-mml-node="math">
            <g data-mml-node="mtext" data-semantic-type="text" data-semantic-role="integer" data-semantic-font="normal" data-semantic-annotation="clearspeak:unit" data-semantic-id="0" data-semantic-speech="5">
              <use data-c="35" xlink:href="#velocity-graph-prep-2-MJX-6-TEX-N-35"/>
            </g>
          </g>
        </g>
      </svg>
    </g>
  </g>
  <g id="velocity-graph-prep-2-label-5" transform="translate(29.3,51.2) translate(-18.1,-6.2)">
    <g id="velocity-graph-prep-2-g-7">
      <svg xmlns:xlink="http://www.w3.org/1999/xlink" style="vertical-align: -0.400px" width="18.096px" height="12.456px" role="img" focusable="false" viewBox="0 -666 1000 688" x="0.0" y="0.0">
        <defs>
          <path id="velocity-graph-prep-2-MJX-7-TEX-N-31" d="M213 578L200 573Q186 568 160 563T102 556H83V602H102Q149 604 189 617T245 641T273 663Q275 666 285 666Q294 666 302 660V361L303 61Q310 54 315 52T339 48T401 46H427V0H416Q395 3 257 3Q121 3 100 0H88V46H114Q136 46 152 46T177 47T193 50T201 52T207 57T213 61V578Z"/>
          <path id="velocity-graph-prep-2-MJX-7-TEX-N-30" d="M96 585Q152 666 249 666Q297 666 345 640T423 548Q460 465 460 320Q460 165 417 83Q397 41 362 16T301 -15T250 -22Q224 -22 198 -16T137 16T82 83Q39 165 39 320Q39 494 96 585ZM321 597Q291 629 250 629Q208 629 178 597Q153 571 145 525T137 333Q137 175 145 125T181 46Q209 16 250 16Q290 16 318 46Q347 76 354 130T362 333Q362 478 354 524T321 597Z"/>
        </defs>
        <g stroke="currentColor" fill="currentColor" stroke-width="0" transform="scale(1,-1)">
          <g data-mml-node="math">
            <g data-mml-node="mtext" data-semantic-type="text" data-semantic-role="unknown" data-semantic-font="normal" data-semantic-annotation="clearspeak:unit" data-semantic-id="0" data-semantic-speech="10">
              <use data-c="31" xlink:href="#velocity-graph-prep-2-MJX-7-TEX-N-31"/>
              <use data-c="30" xlink:href="#velocity-graph-prep-2-MJX-7-TEX-N-30" transform="translate(500,0)"/>
            </g>
          </g>
        </g>
      </svg>
    </g>
  </g>
  <path id="velocity-graph-prep-2-graph-0" stroke="blue" stroke-width="2" fill="none" d="M 40.3 281.9 L 41.0 279.9 L 41.7 277.8 L 42.4 275.8 L 43.1 273.8 L 43.8 271.9 L 44.5 270.0 L 45.2 268.1 L 45.9 266.2 L 46.6 264.4 L 47.4 262.5 L 48.1 260.8 L 48.8 259.0 L 49.5 257.3 L 50.2 255.6 L 50.9 253.9 L 51.6 252.2 L 52.3 250.6 L 53.0 249.0 L 53.7 247.5 L 54.4 245.9 L 55.1 244.4 L 55.8 242.9 L 56.5 241.5 L 57.2 240.1 L 57.9 238.7 L 58.6 237.3 L 59.4 235.9 L 60.1 234.6 L 60.8 233.3 L 61.5 232.1 L 62.2 230.8 L 62.9 229.6 L 63.6 228.5 L 64.3 227.3 L 65.0 226.2 L 65.7 225.1 L 66.4 224.0 L 67.1 223.0 L 67.8 222.0 L 68.5 221.0 L 69.2 220.0 L 69.9 219.1 L 70.6 218.2 L 71.4 217.3 L 72.1 216.5 L 72.8 215.7 L 73.5 214.9 L 74.2 214.1 L 74.9 213.4 L 75.6 212.7 L 76.3 212.0 L 77.0 211.4 L 77.7 210.7 L 78.4 210.1 L 79.1 209.6 L 79.8 209.0 L 80.5 208.5 L 81.2 208.0 L 81.9 207.6 L 82.6 207.2 L 83.4 206.8 L 84.1 206.4 L 84.8 206.0 L 85.5 205.7 L 86.2 205.4 L 86.9 205.2 L 87.6 204.9 L 88.3 204.7 L 89.0 204.5 L 89.7 204.4 L 90.4 204.3 L 91.1 204.2 L 91.8 204.1 L 92.5 204.1 L 93.2 204.0 L 93.9 204.1 L 94.6 204.1 L 95.4 204.2 L 96.1 204.3 L 96.8 204.4 L 97.5 204.5 L 98.2 204.7 L 98.9 204.9 L 99.6 205.2 L 100.3 205.4 L 101.0 205.7 L 101.7 206.0 L 102.4 206.4 L 103.1 206.8 L 103.8 207.2 L 104.5 207.6 L 105.2 208.0 L 105.9 208.5 L 106.6 209.0 L 107.4 209.6 L 108.1 210.1 L 108.8 210.7 L 109.5 211.4 L 110.2 212.0 L 110.9 212.7" clip-path="url(#velocity-graph-prep-2-clipPath-1)"/>
  <path id="velocity-graph-prep-2-graph-1" stroke="blue" stroke-width="2" fill="none" d="M 110.9 212.7 L 112.8 214.5 L 114.8 216.3 L 116.7 217.9 L 118.6 219.5 L 120.6 220.9 L 122.5 222.2 L 124.5 223.5 L 126.4 224.6 L 128.4 225.6 L 130.3 226.5 L 132.2 227.3 L 134.2 228.0 L 136.1 228.6 L 138.1 229.1 L 140.0 229.5 L 141.9 229.8 L 143.9 229.9 L 145.8 230.0 L 147.8 230.0 L 149.7 229.8 L 151.6 229.6 L 153.6 229.2 L 155.5 228.8 L 157.5 228.2 L 159.4 227.6 L 161.4 226.8 L 163.3 225.9 L 165.2 225.0 L 167.2 223.9 L 169.1 222.7 L 171.1 221.4 L 173.0 220.0 L 174.9 218.5 L 176.9 216.9 L 178.8 215.2 L 180.8 213.4 L 182.7 211.5 L 184.6 209.4 L 186.6 207.3 L 188.5 205.1 L 190.5 202.7 L 192.4 200.3 L 194.4 197.8 L 196.3 195.1 L 198.2 192.3 L 200.2 189.5 L 202.1 186.5 L 204.1 183.4 L 206.0 180.3 L 207.9 177.0 L 209.9 173.6 L 211.8 170.1 L 213.8 166.5 L 215.7 162.8 L 217.6 159.0 L 219.6 155.1 L 221.5 151.1 L 223.5 147.0 L 225.4 142.8 L 227.4 138.4 L 229.3 134.0 L 231.2 129.5 L 233.2 124.8 L 235.1 120.1 L 237.1 115.2 L 239.0 110.3 L 240.9 105.2 L 242.9 100.1 L 244.8 94.8 L 246.8 89.4 L 248.7 83.9 L 250.6 78.4 L 252.6 72.7 L 254.5 66.9 L 256.5 61.0 L 258.4 55.0 L 260.4 48.9 L 262.3 42.7 L 264.2 36.3 L 266.2 29.9 L 268.1 23.4 L 270.1 16.8 L 272.0 10.0 L 273.9 3.2 L 275.9 -3.8 L 277.8 -10.8 L 279.8 -18.0 L 281.7 -25.2 L 283.6 -32.6 L 285.6 -40.0 L 287.5 -47.6 L 289.5 -55.3 L 291.4 -63.1 L 293.4 -71.0 L 295.3 -79.0 L 297.2 -87.0 L 299.2 -95.3 L 301.1 -103.6 L 303.1 -112.0 L 305.0 -120.5" clip-path="url(#velocity-graph-prep-2-clipPath-1)"/>
  <line id="velocity-graph-prep-2-line-31" x1="110.9" y1="281.9" x2="110.9" y2="212.7" stroke="black" stroke-width="2" stroke-dasharray="8 8" fill="none"/>
  <line id="velocity-graph-prep-2-line-32" x1="40.3" y1="212.7" x2="110.9" y2="212.7" stroke="black" stroke-width="2" stroke-dasharray="8 8" fill="none"/>
  <line id="velocity-graph-prep-2-line-33" x1="252.1" y1="281.9" x2="252.1" y2="74.2" stroke="black" stroke-width="2" stroke-dasharray="8 8" fill="none"/>
  <line id="velocity-graph-prep-2-line-34" x1="40.3" y1="74.2" x2="252.1" y2="74.2" stroke="black" stroke-width="2" stroke-dasharray="8 8" fill="none"/>
  <circle id="velocity-graph-prep-2-circle-0" cx="110.9" cy="212.7" r="4" stroke="black" stroke-width="2" fill="red"/>
  <circle id="velocity-graph-prep-2-circle-1" cx="252.1" cy="74.2" r="4" stroke="black" stroke-width="2" fill="red"/>
</svg>
