<svg xmlns="http://www.w3.org/2000/svg" id="walk-graph-figure" width="210" height="210" viewBox="0 0 210 210">
  <defs>
    <clipPath id="walk-graph-clipPath-0">
      <rect x="5.0" y="5.0" width="200.0" height="200.0"/>
    </clipPath>
    <clipPath id="walk-graph-clipPath-1">
      <rect x="5.0" y="5.0" width="200.0" height="200.0"/>
    </clipPath>
  </defs>
  <g id="walk-graph-grid-axes">
    <g id="walk-graph-grid" stroke="#ccc" stroke-width="1">
      <line x1="5.0" y1="205.0" x2="5.0" y2="5.0"/>
      <line x1="24.8" y1="205.0" x2="24.8" y2="5.0"/>
      <line x1="44.6" y1="205.0" x2="44.6" y2="5.0"/>
      <line x1="64.4" y1="205.0" x2="64.4" y2="5.0"/>
      <line x1="84.2" y1="205.0" x2="84.2" y2="5.0"/>
      <line x1="104.0" y1="205.0" x2="104.0" y2="5.0"/>
      <line x1="123.8" y1="205.0" x2="123.8" y2="5.0"/>
      <line x1="143.6" y1="205.0" x2="143.6" y2="5.0"/>
      <line x1="163.4" y1="205.0" x2="163.4" y2="5.0"/>
      <line x1="183.2" y1="205.0" x2="183.2" y2="5.0"/>
      <line x1="203.0" y1="205.0" x2="203.0" y2="5.0"/>
      <line x1="5.0" y1="205.0" x2="205.0" y2="205.0"/>
      <line x1="5.0" y1="185.0" x2="205.0" y2="185.0"/>
      <line x1="5.0" y1="165.0" x2="205.0" y2="165.0"/>
      <line x1="5.0" y1="145.0" x2="205.0" y2="145.0"/>
      <line x1="5.0" y1="125.0" x2="205.0" y2="125.0"/>
      <line x1="5.0" y1="105.0" x2="205.0" y2="105.0"/>
      <line x1="5.0" y1="85.0" x2="205.0" y2="85.0"/>
      <line x1="5.0" y1="65.0" x2="205.0" y2="65.0"/>
      <line x1="5.0" y1="45.0" x2="205.0" y2="45.0"/>
      <line x1="5.0" y1="25.0" x2="205.0" y2="25.0"/>
      <line x1="5.0" y1="5.0" x2="205.0" y2="5.0"/>
    </g>
    <g id="walk-graph-axes" stroke="black" stroke-width="2">
      <line id="walk-graph-line-22" x1="5.0" y1="185.0" x2="205.0" y2="185.0" stroke="black" stroke-width="2"/>
      <g id="walk-graph-g-0">
        <line id="walk-graph-line-23" x1="64.4" y1="188.0" x2="64.4" y2="182.0"/>
        <line id="walk-graph-line-24" x1="104.0" y1="188.0" x2="104.0" y2="182.0"/>
        <line id="walk-graph-line-25" x1="143.6" y1="188.0" x2="143.6" y2="182.0"/>
        <line id="walk-graph-line-26" x1="183.2" y1="188.0" x2="183.2" y2="182.0"/>
      </g>
      <line id="walk-graph-line-27" x1="24.8" y1="205.0" x2="24.8" y2="5.0" stroke="black" stroke-width="2"/>
      <g id="walk-graph-g-1">
        <line id="walk-graph-line-28" x1="21.8" y1="145.0" x2="27.8" y2="145.0"/>
        <line id="walk-graph-line-29" x1="21.8" y1="105.0" x2="27.8" y2="105.0"/>
        <line id="walk-graph-line-30" x1="21.8" y1="65.0" x2="27.8" y2="65.0"/>
        <line id="walk-graph-line-31" x1="21.8" y1="25.0" x2="27.8" y2="25.0"/>
      </g>
    </g>
    <g id="walk-graph-label-0" transform="translate(201.0,181.0) translate(-45.4,-18.1)">
      <g id="walk-graph-g-2">
        <svg xmlns:xlink="http://www.w3.org/1999/xlink" style="vertical-align: -4.528px" width="45.376px" height="18.096px" role="img" focusable="false" viewBox="0 -750 2507 1000" x="0.0" y="0.0">
          <defs>
            <path id="walk-graph-MJX-2-TEX-I-1D461" d="M26 385Q19 392 19 395Q19 399 22 411T27 425Q29 430 36 430T87 431H140L159 511Q162 522 166 540T173 566T179 586T187 603T197 615T211 624T229 626Q247 625 254 615T261 596Q261 589 252 549T232 470L222 433Q222 431 272 431H323Q330 424 330 420Q330 398 317 385H210L174 240Q135 80 135 68Q135 26 162 26Q197 26 230 60T283 144Q285 150 288 151T303 153H307Q322 153 322 145Q322 142 319 133Q314 117 301 95T267 48T216 6T155 -11Q125 -11 98 4T59 56Q57 64 57 83V101L92 241Q127 382 128 383Q128 385 77 385H26Z"/>
            <path id="walk-graph-MJX-2-TEX-N-2061" d=""/>
            <path id="walk-graph-MJX-2-TEX-N-28" d="M94 250Q94 319 104 381T127 488T164 576T202 643T244 695T277 729T302 750H315H319Q333 750 333 741Q333 738 316 720T275 667T226 581T184 443T167 250T184 58T225 -81T274 -167T316 -220T333 -241Q333 -250 318 -250H315H302L274 -226Q180 -141 137 -14T94 250Z"/>
            <path id="walk-graph-MJX-2-TEX-I-1D460" d="M131 289Q131 321 147 354T203 415T300 442Q362 442 390 415T419 355Q419 323 402 308T364 292Q351 292 340 300T328 326Q328 342 337 354T354 372T367 378Q368 378 368 379Q368 382 361 388T336 399T297 405Q249 405 227 379T204 326Q204 301 223 291T278 274T330 259Q396 230 396 163Q396 135 385 107T352 51T289 7T195 -10Q118 -10 86 19T53 87Q53 126 74 143T118 160Q133 160 146 151T160 120Q160 94 142 76T111 58Q109 57 108 57T107 55Q108 52 115 47T146 34T201 27Q237 27 263 38T301 66T318 97T323 122Q323 150 302 164T254 181T195 196T148 231Q131 256 131 289Z"/>
            <path id="walk-graph-MJX-2-TEX-N-2062" d=""/>
            <path id="walk-graph-MJX-2-TEX-I-1D452" d="M39 168Q39 225 58 272T107 350T174 402T244 433T307 442H310Q355 442 388 420T421 355Q421 265 310 237Q261 224 176 223Q139 223 138 221Q138 219 132 186T125 128Q125 81 146 54T209 26T302 45T394 111Q403 121 406 121Q410 121 419 112T429 98T420 82T390 55T344 24T281 -1T205 -11Q126 -11 83 42T39 168ZM373 353Q367 405 305 405Q272 405 244 391T199 357T170 316T154 280T149 261Q149 260 169 260Q282 260 327 284T373 353Z"/>
            <path id="walk-graph-MJX-2-TEX-I-1D450" d="M34 159Q34 268 120 355T306 442Q362 442 394 418T427 355Q427 326 408 306T360 285Q341 285 330 295T319 325T330 359T352 380T366 386H367Q367 388 361 392T340 400T306 404Q276 404 249 390Q228 381 206 359Q162 315 142 235T121 119Q121 73 147 50Q169 26 205 26H209Q321 26 394 111Q403 121 406 121Q410 121 419 112T429 98T420 83T391 55T346 25T282 0T202 -11Q127 -11 81 37T34 159Z"/>
            <path id="walk-graph-MJX-2-TEX-N-29" d="M60 749L64 750Q69 750 74 750H86L114 726Q208 641 251 514T294 250Q294 182 284 119T261 12T224 -76T186 -143T145 -194T113 -227T90 -246Q87 -249 86 -250H74Q66 -250 63 -250T58 -247T55 -238Q56 -237 66 -225Q221 -64 221 250T66 725Q56 737 55 738Q55 746 60 749Z"/>
          </defs>
          <g stroke="currentColor" fill="currentColor" stroke-width="0" transform="scale(1,-1)">
            <g data-mml-node="math" data-semantic-type="appl" data-semantic-role="simple function" data-semantic-id="11" data-semantic-children="0,9" data-semantic-content="10,0" data-semantic-speech="t left parenthesis s e c right parenthesis">
              <g data-mml-node="mi" data-semantic-type="identifier" data-semantic-role="simple function" data-semantic-font="italic" data-semantic-annotation="clearspeak:simple" data-semantic-id="0" data-semantic-parent="11" data-semantic-operator="appl" data-semantic-speech="t">
                <use data-c="1D461" xlink:href="#walk-graph-MJX-2-TEX-I-1D461"/>
              </g>
              <g data-mml-node="mo" data-semantic-type="punctuation" data-semantic-role="application" data-semantic-id="10" data-semantic-parent="11" data-semantic-added="true" data-semantic-operator="appl" data-semantic-speech="of" transform="translate(361,0)">
                <use data-c="2061" xlink:href="#walk-graph-MJX-2-TEX-N-2061"/>
              </g>
              <g data-mml-node="mrow" data-semantic-type="fenced" data-semantic-role="leftright" data-semantic-id="9" data-semantic-children="8" data-semantic-content="1,5" data-semantic-parent="11" data-semantic-speech="left parenthesis s e c right parenthesis" transform="translate(361,0)">
                <g data-mml-node="mo" data-semantic-type="fence" data-semantic-role="open" data-semantic-id="1" data-semantic-parent="9" data-semantic-operator="fenced" data-semantic-speech="left parenthesis">
                  <use data-c="28" xlink:href="#walk-graph-MJX-2-TEX-N-28"/>
                </g>
                <g data-mml-node="mrow" data-semantic-type="infixop" data-semantic-role="implicit" data-semantic-annotation="clearspeak:unit" data-semantic-id="8" data-semantic-children="2,3,4" data-semantic-content="6,7" data-semantic-parent="9" data-semantic-speech="s e c" transform="translate(389,0)">
                  <g data-mml-node="mi" data-semantic-type="identifier" data-semantic-role="latinletter" data-semantic-font="italic" data-semantic-annotation="clearspeak:simple" data-semantic-id="2" data-semantic-parent="8" data-semantic-speech="s">
                    <use data-c="1D460" xlink:href="#walk-graph-MJX-2-TEX-I-1D460"/>
                  </g>
                  <g data-mml-node="mo" data-semantic-type="operator" data-semantic-role="multiplication" data-semantic-id="6" data-semantic-parent="8" data-semantic-added="true" data-semantic-operator="infixop,⁢" data-semantic-speech="times" transform="translate(469,0)">
                    <use data-c="2062" xlink:href="#walk-graph-MJX-2-TEX-N-2062"/>
                  </g>
                  <g data-mml-node="mi" data-semantic-type="identifier" data-semantic-role="latinletter" data-semantic-font="italic" data-semantic-annotation="clearspeak:simple" data-semantic-id="3" data-semantic-parent="8" data-semantic-speech="e" transform="translate(469,0)">
                    <use data-c="1D452" xlink:href="#walk-graph-MJX-2-TEX-I-1D452"/>
                  </g>
                  <g data-mml-node="mo" data-semantic-type="operator" data-semantic-role="multiplication" data-semantic-id="7" data-semantic-parent="8" data-semantic-added="true" data-semantic-operator="infixop,⁢" data-semantic-speech="times" transform="translate(935,0)">
                    <use data-c="2062" xlink:href="#walk-graph-MJX-2-TEX-N-2062"/>
                  </g>
                  <g data-mml-node="mi" data-semantic-type="identifier" data-semantic-role="latinletter" data-semantic-font="italic" data-semantic-annotation="clearspeak:simple" data-semantic-id="4" data-semantic-parent="8" data-semantic-speech="c" transform="translate(935,0)">
                    <use data-c="1D450" xlink:href="#walk-graph-MJX-2-TEX-I-1D450"/>
                  </g>
                </g>
                <g data-mml-node="mo" data-semantic-type="fence" data-semantic-role="close" data-semantic-id="5" data-semantic-parent="9" data-semantic-operator="fenced" data-semantic-speech="right parenthesis" transform="translate(1757,0)">
                  <use data-c="29" xlink:href="#walk-graph-MJX-2-TEX-N-29"/>
                </g>
              </g>
            </g>
          </g>
        </svg>
      </g>
    </g>
    <g id="walk-graph-label-1" transform="translate(28.8,9.0) translate(0.0,-0.0)">
      <g id="walk-graph-g-3">
        <svg xmlns:xlink="http://www.w3.org/1999/xlink" style="vertical-align: -4.528px" width="73.160px" height="18.096px" role="img" focusable="false" viewBox="0 -750 4042 1000" x="0.0" y="0.0">
          <defs>
            <path id="walk-graph-MJX-3-TEX-I-1D463" d="M173 380Q173 405 154 405Q130 405 104 376T61 287Q60 286 59 284T58 281T56 279T53 278T49 278T41 278H27Q21 284 21 287Q21 294 29 316T53 368T97 419T160 441Q202 441 225 417T249 361Q249 344 246 335Q246 329 231 291T200 202T182 113Q182 86 187 69Q200 26 250 26Q287 26 319 60T369 139T398 222T409 277Q409 300 401 317T383 343T365 361T357 383Q357 405 376 424T417 443Q436 443 451 425T467 367Q467 340 455 284T418 159T347 40T241 -11Q177 -11 139 22Q102 54 102 117Q102 148 110 181T151 298Q173 362 173 380Z"/>
            <path id="walk-graph-MJX-3-TEX-N-2062" d=""/>
            <path id="walk-graph-MJX-3-TEX-N-28" d="M94 250Q94 319 104 381T127 488T164 576T202 643T244 695T277 729T302 750H315H319Q333 750 333 741Q333 738 316 720T275 667T226 581T184 443T167 250T184 58T225 -81T274 -167T316 -220T333 -241Q333 -250 318 -250H315H302L274 -226Q180 -141 137 -14T94 250Z"/>
            <path id="walk-graph-MJX-3-TEX-I-1D453" d="M118 -162Q120 -162 124 -164T135 -167T147 -168Q160 -168 171 -155T187 -126Q197 -99 221 27T267 267T289 382V385H242Q195 385 192 387Q188 390 188 397L195 425Q197 430 203 430T250 431Q298 431 298 432Q298 434 307 482T319 540Q356 705 465 705Q502 703 526 683T550 630Q550 594 529 578T487 561Q443 561 443 603Q443 622 454 636T478 657L487 662Q471 668 457 668Q445 668 434 658T419 630Q412 601 403 552T387 469T380 433Q380 431 435 431Q480 431 487 430T498 424Q499 420 496 407T491 391Q489 386 482 386T428 385H372L349 263Q301 15 282 -47Q255 -132 212 -173Q175 -205 139 -205Q107 -205 81 -186T55 -132Q55 -95 76 -78T118 -61Q162 -61 162 -103Q162 -122 151 -136T127 -157L118 -162Z"/>
            <path id="walk-graph-MJX-3-TEX-I-1D461" d="M26 385Q19 392 19 395Q19 399 22 411T27 425Q29 430 36 430T87 431H140L159 511Q162 522 166 540T173 566T179 586T187 603T197 615T211 624T229 626Q247 625 254 615T261 596Q261 589 252 549T232 470L222 433Q222 431 272 431H323Q330 424 330 420Q330 398 317 385H210L174 240Q135 80 135 68Q135 26 162 26Q197 26 230 60T283 144Q285 150 288 151T303 153H307Q322 153 322 145Q322 142 319 133Q314 117 301 95T267 48T216 6T155 -11Q125 -11 98 4T59 56Q57 64 57 83V101L92 241Q127 382 128 383Q128 385 77 385H26Z"/>
            <path id="walk-graph-MJX-3-TEX-N-2F" d="M423 750Q432 750 438 744T444 730Q444 725 271 248T92 -240Q85 -250 75 -250Q68 -250 62 -245T56 -231Q56 -221 230 257T407 740Q411 750 423 750Z"/>
            <path id="walk-graph-MJX-3-TEX-I-1D460" d="M131 289Q131 321 147 354T203 415T300 442Q362 442 390 415T419 355Q419 323 402 308T364 292Q351 292 340 300T328 326Q328 342 337 354T354 372T367 378Q368 378 368 379Q368 382 361 388T336 399T297 405Q249 405 227 379T204 326Q204 301 223 291T278 274T330 259Q396 230 396 163Q396 135 385 107T352 51T289 7T195 -10Q118 -10 86 19T53 87Q53 126 74 143T118 160Q133 160 146 151T160 120Q160 94 142 76T111 58Q109 57 108 57T107 55Q108 52 115 47T146 34T201 27Q237 27 263 38T301 66T318 97T323 122Q323 150 302 164T254 181T195 196T148 231Q131 256 131 289Z"/>
            <path id="walk-graph-MJX-3-TEX-I-1D452" d="M39 168Q39 225 58 272T107 350T174 402T244 433T307 442H310Q355 442 388 420T421 355Q421 265 310 237Q261 224 176 223Q139 223 138 221Q138 219 132 186T125 128Q125 81 146 54T209 26T302 45T394 111Q403 121 406 121Q410 121 419 112T429 98T420 82T390 55T344 24T281 -1T205 -11Q126 -11 83 42T39 168ZM373 353Q367 405 305 405Q272 405 244 391T199 357T170 316T154 280T149 261Q149 260 169 260Q282 260 327 284T373 353Z"/>
            <path id="walk-graph-MJX-3-TEX-I-1D450" d="M34 159Q34 268 120 355T306 442Q362 442 394 418T427 355Q427 326 408 306T360 285Q341 285 330 295T319 325T330 359T352 380T366 386H367Q367 388 361 392T340 400T306 404Q276 404 249 390Q228 381 206 359Q162 315 142 235T121 119Q121 73 147 50Q169 26 205 26H209Q321 26 394 111Q403 121 406 121Q410 121 419 112T429 98T420 83T391 55T346 25T282 0T202 -11Q127 -11 81 37T34 159Z"/>
            <path id="walk-graph-MJX-3-TEX-N-29" d="M60 749L64 750Q69 750 74 750H86L114 726Q208 641 251 514T294 250Q294 182 284 119T261 12T224 -76T186 -143T145 -194T113 -227T90 -246Q87 -249 86 -250H74Q66 -250 63 -250T58 -247T55 -238Q56 -237 66 -225Q221 -64 221 250T66 725Q56 737 55 738Q55 746 60 749Z"/>
          </defs>
          <g stroke="currentColor" fill="currentColor" stroke-width="0" transform="scale(1,-1)">
            <g data-mml-node="math" data-semantic-type="infixop" data-semantic-role="implicit" data-semantic-annotation="clearspeak:unit" data-semantic-id="17" data-semantic-children="0,15" data-semantic-content="16" data-semantic-speech="v left parenthesis f t divided by s e c right parenthesis">
              <g data-mml-node="mi" data-semantic-type="identifier" data-semantic-role="latinletter" data-semantic-font="italic" data-semantic-annotation="clearspeak:simple" data-semantic-id="0" data-semantic-parent="17" data-semantic-speech="v">
                <use data-c="1D463" xlink:href="#walk-graph-MJX-3-TEX-I-1D463"/>
              </g>
              <g data-mml-node="mo" data-semantic-type="operator" data-semantic-role="multiplication" data-semantic-id="16" data-semantic-parent="17" data-semantic-added="true" data-semantic-operator="infixop,⁢" data-semantic-speech="times" transform="translate(485,0)">
                <use data-c="2062" xlink:href="#walk-graph-MJX-3-TEX-N-2062"/>
              </g>
              <g data-mml-node="mrow" data-semantic-type="fenced" data-semantic-role="leftright" data-semantic-id="15" data-semantic-children="14" data-semantic-content="1,8" data-semantic-parent="17" data-semantic-speech="left parenthesis f t divided by s e c right parenthesis" transform="translate(485,0)">
                <g data-mml-node="mo" data-semantic-type="fence" data-semantic-role="open" data-semantic-id="1" data-semantic-parent="15" data-semantic-operator="fenced" data-semantic-speech="left parenthesis">
                  <use data-c="28" xlink:href="#walk-graph-MJX-3-TEX-N-28"/>
                </g>
                <g data-mml-node="mrow" data-semantic-type="infixop" data-semantic-role="division" data-semantic-id="14" data-semantic-children="10,13" data-semantic-content="4" data-semantic-parent="15" data-semantic-speech="f t divided by s e c" transform="translate(389,0)">
                  <g data-mml-node="mrow" data-semantic-type="infixop" data-semantic-role="implicit" data-semantic-annotation="clearspeak:simple;clearspeak:unit" data-semantic-id="10" data-semantic-children="2,3" data-semantic-content="9" data-semantic-parent="14" data-semantic-speech="f t">
                    <g data-mml-node="mi" data-semantic-type="identifier" data-semantic-role="latinletter" data-semantic-font="italic" data-semantic-annotation="clearspeak:simple" data-semantic-id="2" data-semantic-parent="10" data-semantic-speech="f">
                      <use data-c="1D453" xlink:href="#walk-graph-MJX-3-TEX-I-1D453"/>
                    </g>
                    <g data-mml-node="mo" data-semantic-type="operator" data-semantic-role="multiplication" data-semantic-id="9" data-semantic-parent="10" data-semantic-added="true" data-semantic-operator="infixop,⁢" data-semantic-speech="times" transform="translate(550,0)">
                      <use data-c="2062" xlink:href="#walk-graph-MJX-3-TEX-N-2062"/>
                    </g>
                    <g data-mml-node="mi" data-semantic-type="identifier" data-semantic-role="latinletter" data-semantic-font="italic" data-semantic-annotation="clearspeak:simple" data-semantic-id="3" data-semantic-parent="10" data-semantic-speech="t" transform="translate(550,0)">
                      <use data-c="1D461" xlink:href="#walk-graph-MJX-3-TEX-I-1D461"/>
                    </g>
                  </g>
                  <g data-mml-node="TeXAtom" data-mjx-texclass="ORD" transform="translate(911,0)">
                    <g data-mml-node="mo" data-semantic-type="operator" data-semantic-role="division" data-semantic-id="4" data-semantic-parent="14" data-semantic-attributes="texclass:ORD" data-semantic-operator="infixop,/" data-semantic-speech="slash">
                      <use data-c="2F" xlink:href="#walk-graph-MJX-3-TEX-N-2F"/>
                    </g>
                  </g>
                  <g data-mml-node="mrow" data-semantic-type="infixop" data-semantic-role="implicit" data-semantic-annotation="clearspeak:unit" data-semantic-id="13" data-semantic-children="5,6,7" data-semantic-content="11,12" data-semantic-parent="14" data-semantic-speech="s e c" transform="translate(1411,0)">
                    <g data-mml-node="mi" data-semantic-type="identifier" data-semantic-role="latinletter" data-semantic-font="italic" data-semantic-annotation="clearspeak:simple" data-semantic-id="5" data-semantic-parent="13" data-semantic-speech="s">
                      <use data-c="1D460" xlink:href="#walk-graph-MJX-3-TEX-I-1D460"/>
                    </g>
                    <g data-mml-node="mo" data-semantic-type="operator" data-semantic-role="multiplication" data-semantic-id="11" data-semantic-parent="13" data-semantic-added="true" data-semantic-operator="infixop,⁢" data-semantic-speech="times" transform="translate(469,0)">
                      <use data-c="2062" xlink:href="#walk-graph-MJX-3-TEX-N-2062"/>
                    </g>
                    <g data-mml-node="mi" data-semantic-type="identifier" data-semantic-role="latinletter" data-semantic-font="italic" data-semantic-annotation="clearspeak:simple" data-semantic-id="6" data-semantic-parent="13" data-semantic-speech="e" transform="translate(469,0)">
                      <use data-c="1D452" xlink:href="#walk-graph-MJX-3-TEX-I-1D452"/>
                    </g>
                    <g data-mml-node="mo" data-semantic-type="operator" data-semantic-role="multiplication" data-semantic-id="12" data-semantic-parent="13" data-semantic-added="true" data-semantic-operator="infixop,⁢" data-semantic-speech="times" transform="translate(935,0)">
                      <use data-c="2062" xlink:href="#walk-graph-MJX-3-TEX-N-2062"/>
                    </g>
                    <g data-mml-node="mi" data-semantic-type="identifier" data-semantic-role="latinletter" data-semantic-font="italic" data-semantic-annotation="clearspeak:simple" data-semantic-id="7" data-semantic-parent="13" data-semantic-speech="c" transform="translate(935,0)">
                      <use data-c="1D450" xlink:href="#walk-graph-MJX-3-TEX-I-1D450"/>
                    </g>
                  </g>
                </g>
                <g data-mml-node="mo" data-semantic-type="fence" data-semantic-role="close" data-semantic-id="8" data-semantic-parent="15" data-semantic-operator="fenced" data-semantic-speech="right parenthesis" transform="translate(3168,0)">
                  <use data-c="29" xlink:href="#walk-graph-MJX-3-TEX-N-29"/>
                </g>
              </g>
            </g>
          </g>
        </svg>
      </g>
    </g>
  </g>
  <path id="walk-graph-graph-0" stroke="blue" stroke-width="2" fill="none" d="M 24.8 185.0 L 25.0 184.2 L 25.2 183.4 L 25.4 182.6 L 25.6 181.8 L 25.8 181.0 L 26.0 180.2 L 26.2 179.4 L 26.4 178.6 L 26.6 177.8 L 26.8 177.0 L 27.0 176.2 L 27.2 175.4 L 27.4 174.6 L 27.6 173.8 L 27.8 173.0 L 28.0 172.2 L 28.2 171.4 L 28.4 170.6 L 28.6 169.8 L 28.8 169.0 L 29.0 168.2 L 29.2 167.4 L 29.4 166.6 L 29.6 165.8 L 29.8 165.0 L 30.0 164.2 L 30.1 163.4 L 30.3 162.6 L 30.5 161.8 L 30.7 161.0 L 30.9 160.2 L 31.1 159.4 L 31.3 158.6 L 31.5 157.8 L 31.7 157.0 L 31.9 156.2 L 32.1 155.4 L 32.3 154.6 L 32.5 153.8 L 32.7 153.0 L 32.9 152.2 L 33.1 151.4 L 33.3 150.6 L 33.5 149.8 L 33.7 149.0 L 33.9 148.2 L 34.1 147.4 L 34.3 146.6 L 34.5 145.8 L 34.7 145.0 L 34.9 144.2 L 35.1 143.4 L 35.3 142.6 L 35.5 141.8 L 35.7 141.0 L 35.9 140.2 L 36.1 139.4 L 36.3 138.6 L 36.5 137.8 L 36.7 137.0 L 36.9 136.2 L 37.1 135.4 L 37.3 134.6 L 37.5 133.8 L 37.7 133.0 L 37.9 132.2 L 38.1 131.4 L 38.3 130.6 L 38.5 129.8 L 38.7 129.0 L 38.9 128.2 L 39.1 127.4 L 39.3 126.6 L 39.5 125.8 L 39.7 125.0 L 39.9 124.2 L 40.0 123.4 L 40.2 122.6 L 40.4 121.8 L 40.6 121.0 L 40.8 120.2 L 41.0 119.4 L 41.2 118.6 L 41.4 117.8 L 41.6 117.0 L 41.8 116.2 L 42.0 115.4 L 42.2 114.6 L 42.4 113.8 L 42.6 113.0 L 42.8 112.2 L 43.0 111.4 L 43.2 110.6 L 43.4 109.8 L 43.6 109.0 L 43.8 108.2 L 44.0 107.4 L 44.2 106.6 L 44.4 105.8 L 44.6 105.0" clip-path="url(#walk-graph-clipPath-1)"/>
  <path id="walk-graph-graph-1" stroke="blue" stroke-width="2" fill="none" d="M 44.6 105.0 L 45.0 105.0 L 45.4 105.0 L 45.8 105.0 L 46.2 105.0 L 46.6 105.0 L 47.0 105.0 L 47.4 105.0 L 47.8 105.0 L 48.2 105.0 L 48.6 105.0 L 49.0 105.0 L 49.4 105.0 L 49.8 105.0 L 50.1 105.0 L 50.5 105.0 L 50.9 105.0 L 51.3 105.0 L 51.7 105.0 L 52.1 105.0 L 52.5 105.0 L 52.9 105.0 L 53.3 105.0 L 53.7 105.0 L 54.1 105.0 L 54.5 105.0 L 54.9 105.0 L 55.3 105.0 L 55.7 105.0 L 56.1 105.0 L 56.5 105.0 L 56.9 105.0 L 57.3 105.0 L 57.7 105.0 L 58.1 105.0 L 58.5 105.0 L 58.9 105.0 L 59.3 105.0 L 59.7 105.0 L 60.0 105.0 L 60.4 105.0 L 60.8 105.0 L 61.2 105.0 L 61.6 105.0 L 62.0 105.0 L 62.4 105.0 L 62.8 105.0 L 63.2 105.0 L 63.6 105.0 L 64.0 105.0 L 64.4 105.0 L 64.8 105.0 L 65.2 105.0 L 65.6 105.0 L 66.0 105.0 L 66.4 105.0 L 66.8 105.0 L 67.2 105.0 L 67.6 105.0 L 68.0 105.0 L 68.4 105.0 L 68.8 105.0 L 69.2 105.0 L 69.6 105.0 L 70.0 105.0 L 70.3 105.0 L 70.7 105.0 L 71.1 105.0 L 71.5 105.0 L 71.9 105.0 L 72.3 105.0 L 72.7 105.0 L 73.1 105.0 L 73.5 105.0 L 73.9 105.0 L 74.3 105.0 L 74.7 105.0 L 75.1 105.0 L 75.5 105.0 L 75.9 105.0 L 76.3 105.0 L 76.7 105.0 L 77.1 105.0 L 77.5 105.0 L 77.9 105.0 L 78.3 105.0 L 78.7 105.0 L 79.1 105.0 L 79.5 105.0 L 79.9 105.0 L 80.2 105.0 L 80.6 105.0 L 81.0 105.0 L 81.4 105.0 L 81.8 105.0 L 82.2 105.0 L 82.6 105.0 L 83.0 105.0 L 83.4 105.0 L 83.8 105.0 L 84.2 105.0" clip-path="url(#walk-graph-clipPath-1)"/>
  <path id="walk-graph-graph-2" stroke="blue" stroke-width="2" fill="none" d="M 84.2 105.0 L 84.4 105.8 L 84.6 106.6 L 84.8 107.4 L 85.0 108.2 L 85.2 109.0 L 85.4 109.8 L 85.6 110.6 L 85.8 111.4 L 86.0 112.2 L 86.2 113.0 L 86.4 113.8 L 86.6 114.6 L 86.8 115.4 L 87.0 116.2 L 87.2 117.0 L 87.4 117.8 L 87.6 118.6 L 87.8 119.4 L 88.0 120.2 L 88.2 121.0 L 88.4 121.8 L 88.6 122.6 L 88.8 123.4 L 89.0 124.2 L 89.2 125.0 L 89.4 125.8 L 89.6 126.6 L 89.8 127.4 L 90.0 128.2 L 90.1 129.0 L 90.3 129.8 L 90.5 130.6 L 90.7 131.4 L 90.9 132.2 L 91.1 133.0 L 91.3 133.8 L 91.5 134.6 L 91.7 135.4 L 91.9 136.2 L 92.1 137.0 L 92.3 137.8 L 92.5 138.6 L 92.7 139.4 L 92.9 140.2 L 93.1 141.0 L 93.3 141.8 L 93.5 142.6 L 93.7 143.4 L 93.9 144.2 L 94.1 145.0 L 94.3 145.8 L 94.5 146.6 L 94.7 147.4 L 94.9 148.2 L 95.1 149.0 L 95.3 149.8 L 95.5 150.6 L 95.7 151.4 L 95.9 152.2 L 96.1 153.0 L 96.3 153.8 L 96.5 154.6 L 96.7 155.4 L 96.9 156.2 L 97.1 157.0 L 97.3 157.8 L 97.5 158.6 L 97.7 159.4 L 97.9 160.2 L 98.1 161.0 L 98.3 161.8 L 98.5 162.6 L 98.7 163.4 L 98.9 164.2 L 99.1 165.0 L 99.3 165.8 L 99.5 166.6 L 99.7 167.4 L 99.9 168.2 L 100.0 169.0 L 100.2 169.8 L 100.4 170.6 L 100.6 171.4 L 100.8 172.2 L 101.0 173.0 L 101.2 173.8 L 101.4 174.6 L 101.6 175.4 L 101.8 176.2 L 102.0 177.0 L 102.2 177.8 L 102.4 178.6 L 102.6 179.4 L 102.8 180.2 L 103.0 181.0 L 103.2 181.8 L 103.4 182.6 L 103.6 183.4 L 103.8 184.2 L 104.0 185.0" clip-path="url(#walk-graph-clipPath-1)"/>
  <path id="walk-graph-graph-3" stroke="blue" stroke-width="2" fill="none" d="M 104.0 185.0 L 104.2 185.0 L 104.4 185.0 L 104.6 185.0 L 104.8 185.0 L 105.0 185.0 L 105.2 185.0 L 105.4 185.0 L 105.6 185.0 L 105.8 185.0 L 106.0 185.0 L 106.2 185.0 L 106.4 185.0 L 106.6 185.0 L 106.8 185.0 L 107.0 185.0 L 107.2 185.0 L 107.4 185.0 L 107.6 185.0 L 107.8 185.0 L 108.0 185.0 L 108.2 185.0 L 108.4 185.0 L 108.6 185.0 L 108.8 185.0 L 109.0 185.0 L 109.2 185.0 L 109.4 185.0 L 109.6 185.0 L 109.8 185.0 L 110.0 185.0 L 110.1 185.0 L 110.3 185.0 L 110.5 185.0 L 110.7 185.0 L 110.9 185.0 L 111.1 185.0 L 111.3 185.0 L 111.5 185.0 L 111.7 185.0 L 111.9 185.0 L 112.1 185.0 L 112.3 185.0 L 112.5 185.0 L 112.7 185.0 L 112.9 185.0 L 113.1 185.0 L 113.3 185.0 L 113.5 185.0 L 113.7 185.0 L 113.9 185.0 L 114.1 185.0 L 114.3 185.0 L 114.5 185.0 L 114.7 185.0 L 114.9 185.0 L 115.1 185.0 L 115.3 185.0 L 115.5 185.0 L 115.7 185.0 L 115.9 185.0 L 116.1 185.0 L 116.3 185.0 L 116.5 185.0 L 116.7 185.0 L 116.9 185.0 L 117.1 185.0 L 117.3 185.0 L 117.5 185.0 L 117.7 185.0 L 117.9 185.0 L 118.1 185.0 L 118.3 185.0 L 118.5 185.0 L 118.7 185.0 L 118.9 185.0 L 119.1 185.0 L 119.3 185.0 L 119.5 185.0 L 119.7 185.0 L 119.9 185.0 L 120.0 185.0 L 120.2 185.0 L 120.4 185.0 L 120.6 185.0 L 120.8 185.0 L 121.0 185.0 L 121.2 185.0 L 121.4 185.0 L 121.6 185.0 L 121.8 185.0 L 122.0 185.0 L 122.2 185.0 L 122.4 185.0 L 122.6 185.0 L 122.8 185.0 L 123.0 185.0 L 123.2 185.0 L 123.4 185.0 L 123.6 185.0 L 123.8 185.0" clip-path="url(#walk-graph-clipPath-1)"/>
  <path id="walk-graph-graph-4" stroke="blue" stroke-width="2" fill="none" d="M 123.8 185.0 L 124.0 183.8 L 124.2 182.6 L 124.4 181.4 L 124.6 180.2 L 124.8 179.0 L 125.0 177.8 L 125.2 176.6 L 125.4 175.4 L 125.6 174.2 L 125.8 173.0 L 126.0 171.8 L 126.2 170.6 L 126.4 169.4 L 126.6 168.2 L 126.8 167.0 L 127.0 165.8 L 127.2 164.6 L 127.4 163.4 L 127.6 162.2 L 127.8 161.0 L 128.0 159.8 L 128.2 158.6 L 128.4 157.4 L 128.6 156.2 L 128.8 155.0 L 129.0 153.8 L 129.2 152.6 L 129.4 151.4 L 129.6 150.2 L 129.8 149.0 L 130.0 147.8 L 130.1 146.6 L 130.3 145.4 L 130.5 144.2 L 130.7 143.0 L 130.9 141.8 L 131.1 140.6 L 131.3 139.4 L 131.5 138.2 L 131.7 137.0 L 131.9 135.8 L 132.1 134.6 L 132.3 133.4 L 132.5 132.2 L 132.7 131.0 L 132.9 129.8 L 133.1 128.6 L 133.3 127.4 L 133.5 126.2 L 133.7 125.0 L 133.9 123.8 L 134.1 122.6 L 134.3 121.4 L 134.5 120.2 L 134.7 119.0 L 134.9 117.8 L 135.1 116.6 L 135.3 115.4 L 135.5 114.2 L 135.7 113.0 L 135.9 111.8 L 136.1 110.6 L 136.3 109.4 L 136.5 108.2 L 136.7 107.0 L 136.9 105.8 L 137.1 104.6 L 137.3 103.4 L 137.5 102.2 L 137.7 101.0 L 137.9 99.8 L 138.1 98.6 L 138.3 97.4 L 138.5 96.2 L 138.7 95.0 L 138.9 93.8 L 139.1 92.6 L 139.3 91.4 L 139.5 90.2 L 139.7 89.0 L 139.9 87.8 L 140.0 86.6 L 140.2 85.4 L 140.4 84.2 L 140.6 83.0 L 140.8 81.8 L 141.0 80.6 L 141.2 79.4 L 141.4 78.2 L 141.6 77.0 L 141.8 75.8 L 142.0 74.6 L 142.2 73.4 L 142.4 72.2 L 142.6 71.0 L 142.8 69.8 L 143.0 68.6 L 143.2 67.4 L 143.4 66.2 L 143.6 65.0" clip-path="url(#walk-graph-clipPath-1)"/>
  <path id="walk-graph-graph-5" stroke="blue" stroke-width="2" fill="none" d="M 143.6 65.0 L 144.0 65.0 L 144.4 65.0 L 144.8 65.0 L 145.2 65.0 L 145.6 65.0 L 146.0 65.0 L 146.4 65.0 L 146.8 65.0 L 147.2 65.0 L 147.6 65.0 L 148.0 65.0 L 148.4 65.0 L 148.8 65.0 L 149.2 65.0 L 149.6 65.0 L 150.0 65.0 L 150.3 65.0 L 150.7 65.0 L 151.1 65.0 L 151.5 65.0 L 151.9 65.0 L 152.3 65.0 L 152.7 65.0 L 153.1 65.0 L 153.5 65.0 L 153.9 65.0 L 154.3 65.0 L 154.7 65.0 L 155.1 65.0 L 155.5 65.0 L 155.9 65.0 L 156.3 65.0 L 156.7 65.0 L 157.1 65.0 L 157.5 65.0 L 157.9 65.0 L 158.3 65.0 L 158.7 65.0 L 159.1 65.0 L 159.5 65.0 L 159.9 65.0 L 160.2 65.0 L 160.6 65.0 L 161.0 65.0 L 161.4 65.0 L 161.8 65.0 L 162.2 65.0 L 162.6 65.0 L 163.0 65.0 L 163.4 65.0 L 163.8 65.0 L 164.2 65.0 L 164.6 65.0 L 165.0 65.0 L 165.4 65.0 L 165.8 65.0 L 166.2 65.0 L 166.6 65.0 L 167.0 65.0 L 167.4 65.0 L 167.8 65.0 L 168.2 65.0 L 168.6 65.0 L 169.0 65.0 L 169.4 65.0 L 169.8 65.0 L 170.1 65.0 L 170.5 65.0 L 170.9 65.0 L 171.3 65.0 L 171.7 65.0 L 172.1 65.0 L 172.5 65.0 L 172.9 65.0 L 173.3 65.0 L 173.7 65.0 L 174.1 65.0 L 174.5 65.0 L 174.9 65.0 L 175.3 65.0 L 175.7 65.0 L 176.1 65.0 L 176.5 65.0 L 176.9 65.0 L 177.3 65.0 L 177.7 65.0 L 178.1 65.0 L 178.5 65.0 L 178.9 65.0 L 179.3 65.0 L 179.7 65.0 L 180.0 65.0 L 180.4 65.0 L 180.8 65.0 L 181.2 65.0 L 181.6 65.0 L 182.0 65.0 L 182.4 65.0 L 182.8 65.0 L 183.2 65.0" clip-path="url(#walk-graph-clipPath-1)"/>
  <path id="walk-graph-graph-6" stroke="blue" stroke-width="2" fill="none" d="M 183.2 65.0 L 183.4 66.2 L 183.6 67.4 L 183.8 68.6 L 184.0 69.8 L 184.2 71.0 L 184.4 72.2 L 184.6 73.4 L 184.8 74.6 L 185.0 75.8 L 185.2 77.0 L 185.4 78.2 L 185.6 79.4 L 185.8 80.6 L 186.0 81.8 L 186.2 83.0 L 186.4 84.2 L 186.6 85.4 L 186.8 86.6 L 187.0 87.8 L 187.2 89.0 L 187.4 90.2 L 187.6 91.4 L 187.8 92.6 L 188.0 93.8 L 188.2 95.0 L 188.4 96.2 L 188.6 97.4 L 188.8 98.6 L 189.0 99.8 L 189.2 101.0 L 189.4 102.2 L 189.6 103.4 L 189.8 104.6 L 190.0 105.8 L 190.1 107.0 L 190.3 108.2 L 190.5 109.4 L 190.7 110.6 L 190.9 111.8 L 191.1 113.0 L 191.3 114.2 L 191.5 115.4 L 191.7 116.6 L 191.9 117.8 L 192.1 119.0 L 192.3 120.2 L 192.5 121.4 L 192.7 122.6 L 192.9 123.8 L 193.1 125.0 L 193.3 126.2 L 193.5 127.4 L 193.7 128.6 L 193.9 129.8 L 194.1 131.0 L 194.3 132.2 L 194.5 133.4 L 194.7 134.6 L 194.9 135.8 L 195.1 137.0 L 195.3 138.2 L 195.5 139.4 L 195.7 140.6 L 195.9 141.8 L 196.1 143.0 L 196.3 144.2 L 196.5 145.4 L 196.7 146.6 L 196.9 147.8 L 197.1 149.0 L 197.3 150.2 L 197.5 151.4 L 197.7 152.6 L 197.9 153.8 L 198.1 155.0 L 198.3 156.2 L 198.5 157.4 L 198.7 158.6 L 198.9 159.8 L 199.1 161.0 L 199.3 162.2 L 199.5 163.4 L 199.7 164.6 L 199.9 165.8 L 200.0 167.0 L 200.2 168.2 L 200.4 169.4 L 200.6 170.6 L 200.8 171.8 L 201.0 173.0 L 201.2 174.2 L 201.4 175.4 L 201.6 176.6 L 201.8 177.8 L 202.0 179.0 L 202.2 180.2 L 202.4 181.4 L 202.6 182.6 L 202.8 183.8 L 203.0 185.0" clip-path="url(#walk-graph-clipPath-1)"/>
  <g id="walk-graph-label-2" transform="translate(88.2,99.0) scale(0.7,0.7) translate(-31.7,-18.1)">
    <g id="walk-graph-g-4">
      <svg xmlns:xlink="http://www.w3.org/1999/xlink" style="vertical-align: -4.528px" width="63.488px" height="18.096px" role="img" focusable="false" viewBox="0 -750 3507.6 1000" x="0.0" y="0.0">
        <defs>
          <path id="walk-graph-MJX-4-TEX-I-1D463" d="M173 380Q173 405 154 405Q130 405 104 376T61 287Q60 286 59 284T58 281T56 279T53 278T49 278T41 278H27Q21 284 21 287Q21 294 29 316T53 368T97 419T160 441Q202 441 225 417T249 361Q249 344 246 335Q246 329 231 291T200 202T182 113Q182 86 187 69Q200 26 250 26Q287 26 319 60T369 139T398 222T409 277Q409 300 401 317T383 343T365 361T357 383Q357 405 376 424T417 443Q436 443 451 425T467 367Q467 340 455 284T418 159T347 40T241 -11Q177 -11 139 22Q102 54 102 117Q102 148 110 181T151 298Q173 362 173 380Z"/>
          <path id="walk-graph-MJX-4-TEX-N-3D" d="M56 347Q56 360 70 367H707Q722 359 722 347Q722 336 708 328L390 327H72Q56 332 56 347ZM56 153Q56 168 72 173H708Q722 163 722 153Q722 140 707 133H70Q56 140 56 153Z"/>
          <path id="walk-graph-MJX-4-TEX-I-1D453" d="M118 -162Q120 -162 124 -164T135 -167T147 -168Q160 -168 171 -155T187 -126Q197 -99 221 27T267 267T289 382V385H242Q195 385 192 387Q188 390 188 397L195 425Q197 430 203 430T250 431Q298 431 298 432Q298 434 307 482T319 540Q356 705 465 705Q502 703 526 683T550 630Q550 594 529 578T487 561Q443 561 443 603Q443 622 454 636T478 657L487 662Q471 668 457 668Q445 668 434 658T419 630Q412 601 403 552T387 469T380 433Q380 431 435 431Q480 431 487 430T498 424Q499 420 496 407T491 391Q489 386 482 386T428 385H372L349 263Q301 15 282 -47Q255 -132 212 -173Q175 -205 139 -205Q107 -205 81 -186T55 -132Q55 -95 76 -78T118 -61Q162 -61 162 -103Q162 -122 151 -136T127 -157L118 -162Z"/>
          <path id="walk-graph-MJX-4-TEX-N-2061" d=""/>
          <path id="walk-graph-MJX-4-TEX-N-28" d="M94 250Q94 319 104 381T127 488T164 576T202 643T244 695T277 729T302 750H315H319Q333 750 333 741Q333 738 316 720T275 667T226 581T184 443T167 250T184 58T225 -81T274 -167T316 -220T333 -241Q333 -250 318 -250H315H302L274 -226Q180 -141 137 -14T94 250Z"/>
          <path id="walk-graph-MJX-4-TEX-I-1D461" d="M26 385Q19 392 19 395Q19 399 22 411T27 425Q29 430 36 430T87 431H140L159 511Q162 522 166 540T173 566T179 586T187 603T197 615T211 624T229 626Q247 625 254 615T261 596Q261 589 252 549T232 470L222 433Q222 431 272 431H323Q330 424 330 420Q330 398 317 385H210L174 240Q135 80 135 68Q135 26 162 26Q197 26 230 60T283 144Q285 150 288 151T303 153H307Q322 153 322 145Q322 142 319 133Q314 117 301 95T267 48T216 6T155 -11Q125 -11 98 4T59 56Q57 64 57 83V101L92 241Q127 382 128 383Q128 385 77 385H26Z"/>
          <path id="walk-graph-MJX-4-TEX-N-29" d="M60 749L64 750Q69 750 74 750H86L114 726Q208 641 251 514T294 250Q294 182 284 119T261 12T224 -76T186 -143T145 -194T113 -227T90 -246Q87 -249 86 -250H74Q66 -250 63 -250T58 -247T55 -238Q56 -237 66 -225Q221 -64 221 250T66 725Q56 737 55 738Q55 746 60 749Z"/>
        </defs>
        <g stroke="currentColor" fill="currentColor" stroke-width="0" transform="scale(1,-1)">
          <g data-mml-node="math" data-semantic-type="relseq" data-semantic-role="equality" data-semantic-id="9" data-semantic-children="0,8" data-semantic-content="1" data-semantic-speech="v equals f left parenthesis t right parenthesis">
            <g data-mml-node="mi" data-semantic-type="identifier" data-semantic-role="latinletter" data-semantic-font="italic" data-semantic-annotation="clearspeak:simple" data-semantic-id="0" data-semantic-parent="9" data-semantic-speech="v">
              <use data-c="1D463" xlink:href="#walk-graph-MJX-4-TEX-I-1D463"/>
            </g>
            <g data-mml-node="mo" data-semantic-type="relation" data-semantic-role="equality" data-semantic-id="1" data-semantic-parent="9" data-semantic-operator="relseq,=" data-semantic-speech="equals" transform="translate(762.8,0)">
              <use data-c="3D" xlink:href="#walk-graph-MJX-4-TEX-N-3D"/>
            </g>
            <g data-mml-node="mrow" data-semantic-type="appl" data-semantic-role="simple function" data-semantic-annotation="clearspeak:simple" data-semantic-id="8" data-semantic-children="2,6" data-semantic-content="7,2" data-semantic-parent="9" data-semantic-speech="f left parenthesis t right parenthesis" transform="translate(1818.6,0)">
              <g data-mml-node="mi" data-semantic-type="identifier" data-semantic-role="simple function" data-semantic-font="italic" data-semantic-annotation="clearspeak:simple" data-semantic-id="2" data-semantic-parent="8" data-semantic-operator="appl" data-semantic-speech="f">
                <use data-c="1D453" xlink:href="#walk-graph-MJX-4-TEX-I-1D453"/>
              </g>
              <g data-mml-node="mo" data-semantic-type="punctuation" data-semantic-role="application" data-semantic-id="7" data-semantic-parent="8" data-semantic-added="true" data-semantic-operator="appl" data-semantic-speech="of" transform="translate(550,0)">
                <use data-c="2061" xlink:href="#walk-graph-MJX-4-TEX-N-2061"/>
              </g>
              <g data-mml-node="mrow" data-semantic-type="fenced" data-semantic-role="leftright" data-semantic-id="6" data-semantic-children="4" data-semantic-content="3,5" data-semantic-parent="8" data-semantic-speech="left parenthesis t right parenthesis" transform="translate(550,0)">
                <g data-mml-node="mo" data-semantic-type="fence" data-semantic-role="open" data-semantic-id="3" data-semantic-parent="6" data-semantic-operator="fenced" data-semantic-speech="left parenthesis">
                  <use data-c="28" xlink:href="#walk-graph-MJX-4-TEX-N-28"/>
                </g>
                <g data-mml-node="mi" data-semantic-type="identifier" data-semantic-role="latinletter" data-semantic-font="italic" data-semantic-annotation="clearspeak:simple" data-semantic-id="4" data-semantic-parent="6" data-semantic-speech="t" transform="translate(389,0)">
                  <use data-c="1D461" xlink:href="#walk-graph-MJX-4-TEX-I-1D461"/>
                </g>
                <g data-mml-node="mo" data-semantic-type="fence" data-semantic-role="close" data-semantic-id="5" data-semantic-parent="6" data-semantic-operator="fenced" data-semantic-speech="right parenthesis" transform="translate(750,0)">
                  <use data-c="29" xlink:href="#walk-graph-MJX-4-TEX-N-29"/>
                </g>
              </g>
            </g>
          </g>
        </g>
      </svg>
    </g>
  </g>
</svg>
